<svg xmlns="http://www.w3.org/2000/svg" viewBox="0 0 759.43 453.57"><defs><style>.cls-1{fill:#ce6405;}.cls-10,.cls-2{fill:#fff;}.cls-2,.cls-3,.cls-6{opacity:0.2;}.cls-3{fill:#d3d3d3;}.cls-4{opacity:0.1;}.cls-5{fill:#1abc9c;}.cls-13,.cls-7{fill:#bee7fa;}.cls-12,.cls-8{fill:#0983b7;}.cls-11,.cls-9{fill:#00aeff;}.cls-11,.cls-12,.cls-13{fill-rule:evenodd;}.cls-14{fill:#046e8e;}</style></defs><title>Automation Amplified</title><g id="Layer_2" data-name="Layer 2"><g id="Layer_1-2" data-name="Layer 1"><path class="cls-1" d="M218.69,294.29a12,12,0,0,1-16.86,1.3h0a12,12,0,0,1-1.3-16.86l42.54-49.65a12,12,0,0,1,16.87-1.31h0a12,12,0,0,1,1.3,16.87Z"/><path class="cls-2" d="M220.54,289.35a10.14,10.14,0,0,1-14.3,1.1h0a10.14,10.14,0,0,1-1.11-14.3L241.22,234a10.15,10.15,0,0,1,14.31-1.1h0a10.15,10.15,0,0,1,1.1,14.31Z"/><path class="cls-3" d="M336,205a42.93,42.93,0,1,1-4.67-60.54A42.94,42.94,0,0,1,336,205Z"/><path class="cls-4" d="M264.11,237a11.91,11.91,0,0,0-12.58-12c-.2,2.5,1.55,5.89,4.68,8.57A13,13,0,0,0,264.11,237Z"/><path class="cls-5" d="M345,212.81a54.89,54.89,0,1,0-82.14,1.37L253.64,225s.46,10.31,10.24,9.76l9.83-11.47A54.89,54.89,0,0,0,345,212.81Zm-69.61-3.11A42.93,42.93,0,1,1,336,205,42.93,42.93,0,0,1,275.43,209.7Z"/><path class="cls-6" d="M343.8,161.92a42.93,42.93,0,0,0-70.34-15.56C309.51,127.15,333.15,148.16,343.8,161.92Z"/><polygon class="cls-7" points="659.53 90.42 641.22 64.98 643.57 62.06 665.44 83.05 659.53 90.42"/><rect class="cls-7" x="705.53" y="65.43" width="10.83" height="76.56" transform="translate(145.31 546.72) rotate(-46.37)"/><rect class="cls-7" x="693.25" y="76.97" width="10.83" height="76.56" transform="translate(133.15 541.41) rotate(-46.37)"/><rect class="cls-7" x="674.59" y="182.55" width="71.82" height="12.99" transform="translate(80.34 567.79) rotate(-45.91)"/><rect class="cls-7" x="659.61" y="165.76" width="73.42" height="12.99" transform="translate(88.17 552.64) rotate(-45.92)"/><rect class="cls-7" x="568.27" y="204.77" width="69.84" height="32.78"/><path class="cls-8" d="M660.21,188.38A32.79,32.79,0,1,0,693,221.17,32.78,32.78,0,0,0,660.21,188.38Z"/><path class="cls-7" d="M660.21,204.42A16.75,16.75,0,1,0,677,221.17,16.75,16.75,0,0,0,660.21,204.42Z"/><path class="cls-9" d="M660.21,213a8.2,8.2,0,1,0,8.2,8.2A8.2,8.2,0,0,0,660.21,213Z"/><path class="cls-8" d="M737.89,125.51a21.54,21.54,0,1,0,21.54,21.54A21.54,21.54,0,0,0,737.89,125.51Z"/><path class="cls-7" d="M737.89,136a11,11,0,1,0,11,11A11,11,0,0,0,737.89,136Z"/><path class="cls-9" d="M737.89,141.66a5.39,5.39,0,1,0,5.39,5.39A5.38,5.38,0,0,0,737.89,141.66Z"/><path class="cls-8" d="M684.53,59.15,655.19,94.48a23,23,0,1,0,29.34-35.33Z"/><polygon class="cls-8" points="682.12 62.06 679.27 61.72 656.02 90.42 656.53 92.87 682.12 62.06"/><rect class="cls-8" x="552.17" width="105.61" height="79.04"/><rect class="cls-10" x="556.25" y="11.01" width="95.98" height="58.11"/><path class="cls-10" d="M646.69,3.18l1.43,1.59,1.43-1.59h1.22L648.7,5.45l2.15,2.45h-1.26l-1.47-1.72L646.61,7.9h-1.22l2.1-2.45-2-2.27Z"/><path class="cls-10" d="M634,2V8.18h7.29V2Zm6.69,5.49h-6.09V3.79h6.09Z"/><rect class="cls-10" x="561.43" y="73.34" width="89.42" height="1.83"/><rect class="cls-10" x="623.6" y="71.88" width="2.07" height="4.51"/><rect class="cls-10" x="556.45" y="72.08" width="1.3" height="4.36"/><rect class="cls-10" x="558.92" y="72.08" width="1.3" height="4.36"/><circle class="cls-8" cx="604.97" cy="39.52" r="24.76" transform="translate(-1.26 33.61) rotate(-3.18)"/><path class="cls-10" d="M598,30.32V49.09a3.19,3.19,0,0,0,5,2.6l13.11-9.39a3.19,3.19,0,0,0,0-5.19L603,27.73A3.19,3.19,0,0,0,598,30.32Z"/><polygon class="cls-7" points="679.27 65.83 650.48 53.45 648.14 56.37 673.36 73.19 679.27 65.83"/><polygon class="cls-7" points="85.24 101.42 100.86 79.72 98.86 77.23 80.19 95.14 85.24 101.42"/><path class="cls-8" d="M90.6,62.75a32.48,32.48,0,0,1,32.48-32.48V21.59a41.16,41.16,0,0,0,0,82.32V95.23A32.48,32.48,0,0,1,90.6,62.75Z"/><path class="cls-8" d="M123.08,21.59v8.68a32.48,32.48,0,1,1,0,65v8.68a41.16,41.16,0,1,0,0-82.32Z"/><path class="cls-10" d="M145.59,62.75a22.5,22.5,0,0,1-22.51,22.5v10a32.48,32.48,0,1,0,0-65v10A22.5,22.5,0,0,1,145.59,62.75Z"/><path class="cls-10" d="M90.6,62.75a32.48,32.48,0,0,0,32.48,32.48v-10a22.5,22.5,0,1,1,0-45v-10A32.48,32.48,0,0,0,90.6,62.75Z"/><path class="cls-8" d="M110.46,62.75a12.62,12.62,0,0,1,12.62-12.62V40.25a22.5,22.5,0,1,0,0,45V75.38A12.63,12.63,0,0,1,110.46,62.75Z"/><path class="cls-8" d="M145.59,62.75a22.5,22.5,0,0,0-22.51-22.5v9.88a12.63,12.63,0,1,1,0,25.25v9.87A22.5,22.5,0,0,0,145.59,62.75Z"/><path class="cls-10" d="M135.71,62.75a12.62,12.62,0,0,0-12.63-12.62V75.38A12.63,12.63,0,0,0,135.71,62.75Z"/><path class="cls-10" d="M110.46,62.75a12.63,12.63,0,0,0,12.62,12.63V50.13A12.62,12.62,0,0,0,110.46,62.75Z"/><polygon class="cls-7" points="191.43 39.58 186.23 34.11 174.98 39.61 179.57 45.38 191.43 39.58"/><polygon class="cls-7" points="172.97 35.48 184.21 29.98 183.09 22.52 171.23 28.32 172.97 35.48"/><polygon class="cls-7" points="118.56 64.64 185.33 31.99 184.52 30.33 127.45 58.23 128.26 54.42 118.56 64.64"/><polygon class="cls-7" points="132.58 63.25 129.07 61.54 186.14 33.65 185.33 31.99 118.56 64.64 132.58 63.25"/><polygon class="cls-7" points="68.39 80.44 92.95 69.88 94.95 72.37 73.44 86.73 68.39 80.44"/><rect class="cls-7" x="8.71" y="108.15" width="65.32" height="9.24" transform="translate(-66.39 59.69) rotate(-43.63)"/><rect class="cls-7" x="19.18" y="117.99" width="65.32" height="9.24" transform="translate(-70.28 69.64) rotate(-43.63)"/><rect class="cls-7" x="36.21" y="154.94" width="11.08" height="61.28" transform="translate(-117.36 81.34) rotate(-44.09)"/><rect class="cls-7" x="48.3" y="139.93" width="11.08" height="62.64" transform="translate(-103.97 85.69) rotate(-44.08)"/><rect class="cls-7" x="103.5" y="198.99" width="59.59" height="27.97"/><path class="cls-8" d="M84.65,185a28,28,0,1,1-28,28A28,28,0,0,1,84.65,185Z"/><path class="cls-7" d="M84.65,198.69A14.29,14.29,0,1,1,70.37,213,14.29,14.29,0,0,1,84.65,198.69Z"/><path class="cls-9" d="M84.65,206a7,7,0,1,1-7,7A7,7,0,0,1,84.65,206Z"/><path class="cls-8" d="M18.38,131.36A18.38,18.38,0,1,1,0,149.74,18.38,18.38,0,0,1,18.38,131.36Z"/><path class="cls-7" d="M18.38,140.35A9.39,9.39,0,1,1,9,149.74,9.39,9.39,0,0,1,18.38,140.35Z"/><path class="cls-9" d="M18.38,145.15a4.59,4.59,0,1,1-4.6,4.59A4.59,4.59,0,0,1,18.38,145.15Z"/><path class="cls-8" d="M63.9,74.75l25,30.14a19.59,19.59,0,1,1-25-30.14Z"/><polygon class="cls-8" points="65.96 77.23 68.39 76.94 88.23 101.42 87.8 103.52 65.96 77.23"/><polygon class="cls-7" points="48.57 378.6 45.64 408.51 42.1 409.13 39.65 380.15 48.57 378.6"/><path class="cls-8" d="M101.94,296.79a23.9,23.9,0,0,1-15.83,22.46c-1.93.69-3.73-1.56-5.81-4.17-1.17-1.47-2.94-3.68-3.74-3.68-1.89,0-3.56,1.46-5.18,2.86-2.08,1.81-4.44,3.85-7.12,1.95a23.84,23.84,0,1,1,37.68-19.42Zm-45.63,0a21.85,21.85,0,0,0,9.15,17.75c1.23.88,2.29.16,4.57-1.83,1.82-1.57,3.88-3.36,6.53-3.36,1.79,0,3.44,2.06,5.34,4.45.94,1.17,2.88,3.6,3.52,3.52a21.79,21.79,0,1,0-29.11-20.53Z"/><rect class="cls-7" x="86.21" y="293.44" width="24.61" height="82.74" transform="translate(-140.19 80.21) rotate(-26.76)"/><rect class="cls-7" x="11.71" y="326.14" width="78.25" height="17.43" transform="translate(-259.61 199.46) rotate(-57.8)"/><rect class="cls-7" x="113.39" y="345.92" width="35.55" height="42.38"/><path class="cls-8" d="M77.66,280.75a15.87,15.87,0,1,1-15.87,15.87A15.87,15.87,0,0,1,77.66,280.75Z"/><path class="cls-7" d="M77.66,288.51a8.11,8.11,0,1,1-8.11,8.11A8.11,8.11,0,0,1,77.66,288.51Z"/><path class="cls-9" d="M77.66,292.65a4,4,0,1,1-4,4A4,4,0,0,1,77.66,292.65Z"/><circle class="cls-8" cx="117.15" cy="378.6" r="19.63"/><path class="cls-7" d="M117.15,368.57a10,10,0,1,1-10,10A10,10,0,0,1,117.15,368.57Z"/><path class="cls-9" d="M117.15,373.69a4.91,4.91,0,1,1-4.91,4.91A4.9,4.9,0,0,1,117.15,373.69Z"/><rect class="cls-7" x="156.45" y="343.53" width="5.13" height="48.87"/><rect class="cls-7" x="146.88" y="336.69" width="9.57" height="60.49"/><path class="cls-8" d="M57,376.55l-43.26,8.29A22,22,0,0,1,57,376.55Z"/><polygon class="cls-8" points="54.65 376.75 53.62 379.3 18.75 385.54 16.92 383.98 54.65 376.75"/><path class="cls-8" d="M63.75,374.19l38,30.68c-.19,0-.84,3.3-1,3.3l-4.94,18.56-63.49-1.18L27,407c-.19,0-1-2.09-1.22-2.13Z"/><path class="cls-7" d="M98.43,426.73H97V388.89a2.28,2.28,0,0,0-2.49-2H33a2.29,2.29,0,0,0-2.5,2v37.84H28.84A3.28,3.28,0,0,0,25.55,430V450.2a3.28,3.28,0,0,0,3.29,3.28H98.43a3.28,3.28,0,0,0,3.29-3.28V430A3.28,3.28,0,0,0,98.43,426.73Z"/><path class="cls-8" d="M74.08,427.94l-9.31,7.75a1.55,1.55,0,0,1-1,.37,1.58,1.58,0,0,1-1-.37l-9.3-7.75L28,453.41a3.29,3.29,0,0,0,.77.16h70a3.38,3.38,0,0,0,.78-.16Z"/><path class="cls-8" d="M102,405.81a3,3,0,0,0-.19-.94l-25.23,21,25.27,25.27a3.37,3.37,0,0,0,.15-.78Z"/><path class="cls-8" d="M25.75,404.86a3.1,3.1,0,0,0-.2.95v44.57a2.85,2.85,0,0,0,.16.78L51,425.89Z"/><path class="cls-8" d="M77.06,409.57a13.31,13.31,0,1,1-13.31-13.31A13.31,13.31,0,0,1,77.06,409.57Z"/><path class="cls-10" d="M60,405.17v9a2,2,0,0,0,3.15,1.62l6.29-4.51a2,2,0,0,0,0-3.24l-6.29-4.5A2,2,0,0,0,60,405.17Z"/><polygon class="cls-7" points="18.77 383.8 31.67 410.95 35.2 410.33 27.69 382.24 18.77 383.8"/><polygon class="cls-7" points="718.18 375.8 705.28 402.95 701.75 402.33 709.25 374.24 718.18 375.8"/><path class="cls-8" d="M742.27,436l-4.54-5.91A22.5,22.5,0,0,1,715.66,434l-2,7.19A30,30,0,0,0,742.27,436Z"/><path class="cls-8" d="M737.73,430.13l4.54,5.91a30,30,0,0,0,8.81-34.34l-7.31,1.85a22.51,22.51,0,0,1-6,26.58Z"/><path class="cls-8" d="M713.23,392.78l-3-6.84a29.94,29.94,0,0,0,3.37,55.27l2-7.19a22.49,22.49,0,0,1-2.43-41.24Z"/><path class="cls-8" d="M723.31,390.4a22.49,22.49,0,0,1,20.46,13.15l7.31-1.85a29.94,29.94,0,0,0-40.81-15.76l3,6.84A22.47,22.47,0,0,1,723.31,390.4Z"/><path class="cls-11" d="M723.8,418.53a5.54,5.54,0,0,1,1.65,1l2.28-.94,1.53,2.65-1.91,1.59a5.15,5.15,0,0,1,.08,1,6.11,6.11,0,0,1-.06.86l2,1.53-1.54,2.66-2.29-.85a5.7,5.7,0,0,1-1.62,1l-.33,2.42h-3.07l-.4-2.38a5.42,5.42,0,0,1-1.65-1l-2.28.94-1.53-2.65,1.91-1.59a5.15,5.15,0,0,1-.09-1,6,6,0,0,1,.07-.86l-2-1.53,1.54-2.66,2.29.85a5.24,5.24,0,0,1,1.62-1l.32-2.43h3.07Z"/><path class="cls-12" d="M722,427.73a4,4,0,1,0-4-4,4,4,0,0,0,4,4Z"/><path class="cls-13" d="M722,426.39a2.64,2.64,0,1,0-2.64-2.64,2.65,2.65,0,0,0,2.64,2.64Z"/><path class="cls-11" d="M729.31,395.84a8.3,8.3,0,0,1,2.75.59l2.79-2.36,3.37,3.05-2,3.1a7.83,7.83,0,0,1,.57,1.33,8.06,8.06,0,0,1,.29,1.25l3.5,1.25-1,4.45-3.62-.16a8,8,0,0,1-1.85,2.12l.65,3.57-4.33,1.39-1.65-3.17a8.31,8.31,0,0,1-2.76-.59L723.3,414l-3.37-3,2-3.1a8.69,8.69,0,0,1-.56-1.33,7.09,7.09,0,0,1-.3-1.25l-3.5-1.25,1-4.45,3.62.16a8,8,0,0,1,1.85-2.12l-.65-3.57,4.33-1.4Z"/><path class="cls-12" d="M729.07,410.47a6.43,6.43,0,1,0-6.42-6.43,6.45,6.45,0,0,0,6.42,6.43Z"/><path class="cls-13" d="M730.28,407.77a3.92,3.92,0,1,0-4.93-2.52,3.93,3.93,0,0,0,4.93,2.52Z"/><path class="cls-11" d="M709.58,410.39a3.41,3.41,0,0,1,1-.6l.18-1.51,1.89,0,.28,1.5a3.87,3.87,0,0,1,.55.25,4.78,4.78,0,0,1,.44.29l1.42-.6,1,1.62-1.15,1a3.28,3.28,0,0,1,0,1.17l1.21.9-.93,1.65-1.4-.5a3.34,3.34,0,0,1-1,.6l-.18,1.51-1.89,0-.27-1.5a3.87,3.87,0,0,1-.55-.25,5,5,0,0,1-.45-.29l-1.42.6-1-1.62,1.14-1a3.28,3.28,0,0,1,0-1.17l-1.21-.9.92-1.65Z"/><path class="cls-12" d="M713.65,414.91a2.67,2.67,0,1,0-3.78-.14,2.67,2.67,0,0,0,3.78.14Z"/><path class="cls-13" d="M713.25,413.75a1.63,1.63,0,1,0-2.22.63,1.63,1.63,0,0,0,2.22-.63Z"/><polygon class="cls-7" points="692.38 372.6 695.31 402.51 698.85 403.13 701.3 374.15 692.38 372.6"/><path class="cls-8" d="M658.85,265a23.84,23.84,0,0,1,13.83,43.26c-2.67,1.9-5-.14-7.11-1.95-1.62-1.4-3.3-2.86-5.18-2.86-.81,0-2.57,2.21-3.74,3.68-2.08,2.61-3.88,4.86-5.81,4.17a23.84,23.84,0,0,1,8-46.3Zm0,2.05a21.79,21.79,0,0,0-7.32,42.32c.64.08,2.58-2.35,3.51-3.52,1.91-2.39,3.56-4.45,5.35-4.45,2.65,0,4.71,1.79,6.53,3.36,2.28,2,3.34,2.71,4.57,1.83A21.79,21.79,0,0,0,658.85,267Z"/><rect class="cls-7" x="597.06" y="314.51" width="82.74" height="24.61" transform="translate(59.17 749.74) rotate(-63.24)"/><rect class="cls-7" x="677.39" y="287.73" width="17.43" height="78.25" transform="translate(-68.65 415.85) rotate(-32.2)"/><rect class="cls-7" x="588.02" y="337.92" width="35.55" height="42.38"/><path class="cls-8" d="M659.29,272.75a15.87,15.87,0,1,0,15.87,15.87A15.86,15.86,0,0,0,659.29,272.75Z"/><path class="cls-7" d="M659.29,280.51a8.11,8.11,0,1,0,8.11,8.11A8.11,8.11,0,0,0,659.29,280.51Z"/><path class="cls-9" d="M659.29,284.65a4,4,0,1,0,4,4A4,4,0,0,0,659.29,284.65Z"/><circle class="cls-8" cx="619.8" cy="370.6" r="19.63"/><path class="cls-7" d="M619.8,360.57a10,10,0,1,0,10,10A10,10,0,0,0,619.8,360.57Z"/><path class="cls-9" d="M619.8,365.69a4.91,4.91,0,1,0,4.91,4.91A4.9,4.9,0,0,0,619.8,365.69Z"/><rect class="cls-7" x="575.37" y="335.53" width="5.13" height="48.87"/><rect class="cls-7" x="580.5" y="328.69" width="9.57" height="60.49"/><path class="cls-8" d="M679.92,368.55l43.26,8.29a22,22,0,0,0-43.26-8.29Z"/><polygon class="cls-8" points="682.3 368.75 683.33 371.3 718.2 377.54 720.03 375.98 682.3 368.75"/><path class="cls-12" d="M575.65,391c0,9.41-8.44,17-18.85,17H179.68c-10.41,0-18.86-7.63-18.86-17V180c0-9.41,8.45-17,18.86-17H556.8c10.41,0,18.85,7.64,18.85,17Z"/><rect class="cls-7" x="179.36" y="179.1" width="379.36" height="211.83"/><path class="cls-11" d="M107.31,406.8a32.49,32.49,0,0,0-.34,4.67c0,13.47,8.17,24.39,18.25,24.39H612.7c10.08,0,18.25-10.92,18.25-24.39a32.49,32.49,0,0,0-.34-4.67Z"/><path class="cls-9" d="M108.54,421.33c2.84,8.56,9.24,14.53,16.68,14.53H612.7c7.45,0,13.85-6,16.69-14.53Z"/><g id="Site"><polyline class="cls-9" points="225.28 120.92 225.07 120.92 225.07 391.01 457.51 391.01 457.51 120.92 313.28 120.92"/><rect class="cls-8" x="225.58" y="144.16" width="232.43" height="70.71"/><rect class="cls-7" x="233.65" y="144.16" width="216.3" height="70.71"/><path class="cls-8" d="M241.43,175.6l6.78-6.77v1.95l-5.71,5.56v0l5.71,5.56v2l-6.78-6.77Z"/><path class="cls-8" d="M441.66,177.13l-6.77,6.77v-2l5.7-5.56v0l-5.7-5.56v-1.95l6.77,6.77Z"/><rect class="cls-7" x="242.6" y="234.08" width="49.88" height="39.15"/><rect class="cls-7" x="316.17" y="234.08" width="49.88" height="39.15"/><rect class="cls-7" x="390.62" y="234.08" width="49.88" height="39.15"/><rect class="cls-7" x="242.6" y="284.08" width="49.88" height="39.15"/><rect class="cls-7" x="316.17" y="284.08" width="49.88" height="39.15"/><rect class="cls-7" x="390.62" y="284.08" width="49.88" height="39.15"/><rect class="cls-14" x="242.6" y="333.49" width="197.9" height="3.23"/><rect class="cls-14" x="242.85" y="340.8" width="197.89" height="3.23"/><rect class="cls-14" x="243.41" y="348.47" width="197.9" height="3.23"/><rect class="cls-14" x="243.65" y="355.78" width="197.89" height="3.22"/><g id="Data"><path class="cls-9" d="M323.67,199.21l-3.75-4.88a18.45,18.45,0,0,1-11.9,4.32,18.66,18.66,0,0,1-6.32-1.1L300,203.48a24.75,24.75,0,0,0,23.64-4.27Z"/><path class="cls-9" d="M319.92,194.33l3.75,4.88A24.75,24.75,0,0,0,331,170.85l-6,1.53a18.58,18.58,0,0,1-5,22Z"/><path class="cls-9" d="M299.7,163.5l-2.45-5.66A24.72,24.72,0,0,0,300,203.48l1.67-5.93a18.57,18.57,0,0,1-2-34.05Z"/><path class="cls-9" d="M308,161.53a18.57,18.57,0,0,1,16.89,10.85l6-1.53a24.72,24.72,0,0,0-33.7-13l2.45,5.66A18.44,18.44,0,0,1,308,161.53Z"/></g><g id="Data-2" data-name="Data"><path class="cls-9" d="M376.36,197l-2.48-3.21a12.16,12.16,0,0,1-7.83,2.84,12.31,12.31,0,0,1-4.17-.73l-1.09,3.91A16.3,16.3,0,0,0,376.36,197Z"/><path class="cls-9" d="M373.88,193.74l2.48,3.21a16.32,16.32,0,0,0,4.79-18.68l-4,1a12.24,12.24,0,0,1-3.29,14.46Z"/><path class="cls-9" d="M360.56,173.43,359,169.7a16.28,16.28,0,0,0,1.84,30.06l1.09-3.91a12.23,12.23,0,0,1-1.32-22.42Z"/><path class="cls-9" d="M366.05,172.13a12.21,12.21,0,0,1,11.12,7.15l4-1A16.3,16.3,0,0,0,359,169.7l1.61,3.73A12.23,12.23,0,0,1,366.05,172.13Z"/></g><g id="Data-3" data-name="Data"><path class="cls-9" d="M412.75,194.77l-1.4-1.83a6.92,6.92,0,0,1-4.46,1.61,6.85,6.85,0,0,1-2.36-.41l-.62,2.22a9.13,9.13,0,0,0,3,.5A9.27,9.27,0,0,0,412.75,194.77Z"/><path class="cls-9" d="M411.35,192.94l1.4,1.83a9.26,9.26,0,0,0,2.72-10.62l-2.26.58a7,7,0,0,1-1.86,8.21Z"/><path class="cls-9" d="M403.78,181.4l-.92-2.11a9.25,9.25,0,0,0,1.05,17.07l.62-2.22a6.95,6.95,0,0,1-.75-12.74Z"/><path class="cls-9" d="M406.89,180.67a7,7,0,0,1,6.32,4.06l2.26-.58a9.27,9.27,0,0,0-12.61-4.86l.92,2.11A6.88,6.88,0,0,1,406.89,180.67Z"/></g></g></g></g></svg>