<svg xmlns="http://www.w3.org/2000/svg" xmlns:xlink="http://www.w3.org/1999/xlink" viewBox="0 0 2353.86 2761.02"><defs><style>.cls-1,.cls-19{fill:none;}.cls-2{fill:#3c3f42;}.cls-3{fill:#e00;}.cls-17,.cls-4,.cls-6,.cls-8{fill:#fff;}.cls-5{clip-path:url(#clip-path);}.cls-6,.cls-8{stroke:#fddbdb;}.cls-15,.cls-16,.cls-6,.cls-8{stroke-linecap:round;stroke-linejoin:round;}.cls-15,.cls-17,.cls-19,.cls-6{stroke-width:2.93px;}.cls-7{fill:red;}.cls-16,.cls-8{stroke-width:3.6px;}.cls-9{clip-path:url(#clip-path-2);}.cls-10{fill:#8f0000;}.cls-11{clip-path:url(#clip-path-3);}.cls-12{clip-path:url(#clip-path-4);}.cls-13{clip-path:url(#clip-path-5);}.cls-14{clip-path:url(#clip-path-6);}.cls-15,.cls-16,.cls-20{fill:#2e2e2e;}.cls-15,.cls-16{stroke:#e00;}.cls-17,.cls-19{stroke:red;stroke-miterlimit:10;}.cls-18{fill:#6c6c6c;}</style><clipPath id="clip-path"><path class="cls-1" d="M1411.54,415.63c288,67,279.26,320.75,415.57,410.8,109.3,72.2,240.6,232,240.6,367.55,0,291.89-244.38,417.63-287.12,580.33-35.75,136.09-44.75,264-140.71,374.27-79.82,91.76-201,147.38-318.28,129.65-170.62-25.81-266.26-159.41-444.11-176.17-71.13-6.7-183.44-10.38-252.42-31.18C541.36,2045.64,453,2017.32,375.6,1971c-160.68-96.28-296-312.84-265.14-533.07C140.74,1221.8-21,955.79,140.14,872.83c61.67-31.74,455.8,49,510.57,5.58C713,829,758.24,760.25,812,700.87,985.37,509.39,1187.26,363.43,1411.54,415.63Z"/></clipPath><clipPath id="clip-path-2"><rect class="cls-1" x="527.84" y="1311.05" width="1846.8" height="46.33" transform="translate(-518.37 1416.97) rotate(-45)"/></clipPath><clipPath id="clip-path-3"><rect class="cls-1" x="827.92" y="1461.1" width="1531.21" height="46.33" transform="translate(-582.8 1561.52) rotate(-45)"/></clipPath><clipPath id="clip-path-4"><rect class="cls-1" x="392.24" y="1330.27" width="1544.16" height="46.33" transform="translate(-616.01 1219.71) rotate(-45)"/></clipPath><clipPath id="clip-path-5"><path class="cls-1" d="M1411.54,415.63c288,67,279.26,320.75,415.57,410.8,109.3,72.2,240.6,232,240.6,367.55,0,291.89-244.38,417.63-287.12,580.33-35.75,136.09-44.75,264-140.71,374.27-79.82,91.76-201,147.38-318.28,129.65-170.62-25.81-266.26-159.41-444.11-176.17-71.13-6.7-183.44-10.38-252.42-31.18C541.36,2045.64,453,2017.32,375.6,1971c-160.68-96.28-289.76-311.86-258.9-532.09C147,1222.78,308,1062.81,469.19,979.85c61.66-31.74,126.75-58,181.52-101.44C713,829,758.24,760.25,812,700.87,985.37,509.39,1187.26,363.43,1411.54,415.63Z"/></clipPath><clipPath id="clip-path-6"><polygon class="cls-1" points="849.76 1224.38 849.76 1383.15 711.29 1558.61 793.81 1558.61 793.81 2189.75 1045.58 2273.67 1045.58 1224.38 849.76 1224.38"/></clipPath></defs><g id="Modernize_IT_to_advance_the_mission" data-name="Modernize IT to advance the mission"><path class="cls-2" d="M1411.54,415.63c288,67,279.26,320.75,415.57,410.8,109.3,72.2,240.6,232,240.6,367.55,0,291.89-244.38,417.63-287.12,580.33-35.75,136.09-44.75,264-140.71,374.27-79.82,91.76-201,147.38-318.28,129.65-170.62-25.81-266.26-159.41-444.11-176.17-71.13-6.7-183.44-10.38-252.42-31.18C541.36,2045.64,453,2017.32,375.6,1971c-160.68-96.28-263.49-372.21-258.9-532.09,6.26-218.11,191.33-376.06,352.49-459,61.66-31.74,126.75-58,181.52-101.44C713,829,758.24,760.25,812,700.87,985.37,509.39,1187.26,363.43,1411.54,415.63Z"/><rect class="cls-3" x="527.84" y="1311.05" width="1846.8" height="46.33" transform="translate(-518.37 1416.97) rotate(-45)"/><path class="cls-3" d="M2109.29,814.23a23.17,23.17,0,0,1-39.48-18.31l7.81-92.66-92.9,8a23.16,23.16,0,1,1-4-46.16L2101,654.75a23.15,23.15,0,0,1,25.06,25l-10.11,120A23.07,23.07,0,0,1,2109.29,814.23Z"/><rect class="cls-3" x="827.92" y="1461.1" width="1531.21" height="46.33" transform="translate(-582.8 1561.52) rotate(-45)"/><path class="cls-3" d="M2140,1075.86a23.17,23.17,0,0,1-39.47-18.32l7.8-92.66-92.89,8a23.17,23.17,0,0,1-4-46.17l120.26-10.31a23.18,23.18,0,0,1,25.07,25l-10.11,120A23.08,23.08,0,0,1,2140,1075.86Z"/><rect class="cls-3" x="392.24" y="1330.27" width="1544.16" height="46.33" transform="translate(-616.01 1219.71) rotate(-45)"/><path class="cls-3" d="M1715.38,940.48a23.17,23.17,0,0,1-39.47-18.32l7.8-92.66-92.89,8a23.17,23.17,0,0,1-4-46.17L1707.12,781a23.18,23.18,0,0,1,25.07,25l-10.11,120A23.13,23.13,0,0,1,1715.38,940.48Z"/><path class="cls-4" d="M1239.81,593.79a61.81,61.81,0,0,0,61.74,61.74h453.58a61.74,61.74,0,1,0-15.72-121.41,91,91,0,0,0-107.34-56.41c-8.81-30.89-29.75-58.86-59.15-78.92-30.3-20.68-68.48-32.08-107.5-32.08-94.55,0-171.47,65.11-171.47,145.14a124.34,124.34,0,0,0,1.71,20.55A61.81,61.81,0,0,0,1239.81,593.79Z"/><path class="cls-4" d="M846,624.16a170.19,170.19,0,0,0-50,7.49A226.48,226.48,0,0,0,595.81,511.3c-96.48,0-178.82,60.34-211.48,145.32a154,154,0,0,0-136.8,94.26,108.46,108.46,0,1,0-27,213.51H846a170.12,170.12,0,0,0,0-340.23Z"/><path class="cls-3" d="M608.79,795.27v54.94a25.11,25.11,0,0,1-50.21,0V795.27a55.5,55.5,0,1,1,50.21,0Z"/><g class="cls-5"><rect class="cls-6" x="116.99" y="1224.39" width="810.95" height="220.52" transform="translate(1044.93 2669.29) rotate(-180)"/><circle class="cls-3" cx="248.45" cy="1334.65" r="25.93"/><rect class="cls-7" x="358.38" y="1313.64" width="441.53" height="42.01" transform="translate(1158.29 2669.29) rotate(-180)"/><rect class="cls-6" x="116.99" y="1447.86" width="810.95" height="220.52" transform="translate(1044.93 3116.25) rotate(-180)"/><circle class="cls-3" cx="248.45" cy="1558.13" r="25.93"/><rect class="cls-7" x="358.38" y="1537.12" width="441.53" height="42.01" transform="translate(1158.29 3116.25) rotate(-180)"/><rect class="cls-8" x="116.99" y="1671.34" width="810.95" height="220.52" transform="translate(1044.93 3563.21) rotate(-180)"/><circle class="cls-3" cx="248.45" cy="1781.6" r="25.93"/><rect class="cls-7" x="358.38" y="1760.6" width="441.53" height="42.01" transform="translate(1158.29 3563.21) rotate(-180)"/><rect class="cls-6" x="116.99" y="1894.82" width="810.95" height="220.52" transform="translate(1044.93 4010.16) rotate(-180)"/><circle class="cls-3" cx="248.45" cy="2005.08" r="25.93"/><rect class="cls-7" x="358.38" y="1984.08" width="441.53" height="42.01" transform="translate(1158.29 4010.16) rotate(-180)"/><rect class="cls-6" x="116.99" y="2118.3" width="810.95" height="220.52" transform="translate(1044.93 4457.12) rotate(-180)"/><circle class="cls-3" cx="248.45" cy="2228.56" r="25.93"/><rect class="cls-7" x="358.38" y="2207.56" width="441.53" height="42.01" transform="translate(1158.29 4457.12) rotate(-180)"/></g><g class="cls-9"><polygon class="cls-10" points="1670.04 1373.27 1670.04 1225.86 1670.02 1225.86 1670.02 1187.11 1751.78 1187.11 1586.18 1013.28 1440.93 865.88 1420.59 865.48 1420.59 1895.54 1476.03 1877.06 1476.03 2255.52 1725.46 2172.38 1725.46 1547.1 1807.22 1547.1 1670.04 1373.27"/></g><g class="cls-11"><polygon class="cls-10" points="1670.04 1373.27 1670.04 1225.86 1670.02 1225.86 1670.02 1187.11 1751.78 1187.11 1586.18 1013.28 1440.93 865.88 1420.59 865.48 1420.59 1895.54 1476.03 1877.06 1476.03 2255.52 1725.46 2172.38 1725.46 1547.1 1807.22 1547.1 1670.04 1373.27"/></g><g class="cls-12"><polygon class="cls-10" points="1670.04 1373.27 1670.04 1225.86 1670.02 1225.86 1670.02 1187.11 1751.78 1187.11 1586.18 1013.28 1440.93 865.88 1420.59 865.48 1420.59 1895.54 1476.03 1877.06 1476.03 2255.52 1725.46 2172.38 1725.46 1547.1 1807.22 1547.1 1670.04 1373.27"/></g><g class="cls-13"><g class="cls-14"><rect class="cls-15" x="120.03" y="1224.82" width="807.45" height="219.57" transform="translate(1047.52 2669.21) rotate(-180)"/><circle cx="250.92" cy="1334.61" r="25.82"/><rect x="360.38" y="1313.7" width="439.62" height="41.82" transform="translate(1160.38 2669.21) rotate(-180)"/><rect class="cls-15" x="120.03" y="1447.34" width="807.45" height="219.57" transform="translate(1047.52 3114.24) rotate(-180)"/><circle cx="250.92" cy="1557.12" r="25.82"/><rect x="360.38" y="1536.21" width="439.62" height="41.82" transform="translate(1160.38 3114.24) rotate(-180)"/><rect class="cls-16" x="120.03" y="1669.85" width="807.45" height="219.57" transform="translate(1047.52 3559.27) rotate(-180)"/><circle cx="250.92" cy="1779.64" r="25.82"/><rect x="360.38" y="1758.72" width="439.62" height="41.82" transform="translate(1160.38 3559.27) rotate(-180)"/><rect class="cls-15" x="120.03" y="1892.36" width="807.45" height="219.57" transform="translate(1047.52 4004.3) rotate(-180)"/><circle cx="250.92" cy="2002.15" r="25.82"/><rect x="360.38" y="1981.24" width="439.62" height="41.82" transform="translate(1160.38 4004.3) rotate(-180)"/><rect class="cls-15" x="120.03" y="2114.88" width="807.45" height="219.57" transform="translate(1047.52 4449.33) rotate(-180)"/><circle cx="250.92" cy="2224.66" r="25.82"/><rect x="360.38" y="2203.75" width="439.62" height="41.82" transform="translate(1160.38 4449.33) rotate(-180)"/></g></g><path d="M1983.82,1538.9a179.06,179.06,0,0,0-339.51,17.46A115.28,115.28,0,1,0,1606,1782.52v.29h359.58c2.63.17,5.26.28,7.92.28a122.31,122.31,0,0,0,10.33-244.19Z"/><g class="cls-13"><path class="cls-4" d="M1720.35,1507.26,1631,1381.6l-2.44-11.46V1148.08h35.33a6.27,6.27,0,0,0,4.4-10.73L1476.31,948,1277.85,752.18a6.26,6.26,0,0,0-8.8,0L1070.59,948l-192,189.39a6.27,6.27,0,0,0,4.4,10.73h35.33v222.06l-96.4,135.56a6.27,6.27,0,0,0,5.11,9.9h35.88v776.59h801.38V1515.6h49.83l5.14-2.69Z"/><circle class="cls-17" cx="1265.09" cy="1011.67" r="111.02"/><rect class="cls-7" x="1261.09" y="911.04" width="3.78" height="16.82"/><rect class="cls-7" x="1214.53" y="923.12" width="3.78" height="16.82" transform="translate(-302.8 733.01) rotate(-30)"/><rect class="cls-7" x="1213.25" y="1084.09" width="3.78" height="16.82" transform="translate(1721.24 2646.21) rotate(-150)"/><rect class="cls-7" x="1259.62" y="1096.91" width="3.78" height="16.82" transform="translate(2523.03 2210.64) rotate(-180)"/><rect class="cls-7" x="1306.19" y="1084.83" width="3.78" height="16.82" transform="translate(2987.53 1385.97) rotate(150)"/><rect class="cls-7" x="1340.48" y="1051.08" width="3.78" height="16.82" transform="translate(2931.1 426.71) rotate(120)"/><rect class="cls-7" x="1353.3" y="1004.71" width="3.78" height="16.82" transform="translate(2368.31 -342.07) rotate(90)"/><rect class="cls-7" x="1341.21" y="958.14" width="3.78" height="16.82" transform="translate(1508.61 -679.89) rotate(60)"/><rect class="cls-7" x="1307.46" y="923.85" width="3.78" height="16.82" transform="translate(641.55 -529.78) rotate(30)"/><polygon points="1271.08 1009.44 1260.15 1009.44 1260.15 953.51 1265.61 943.42 1271.08 953.51 1271.08 1009.44"/><polygon points="1266.63 1017.13 1266.63 1006.2 1299.08 1006.2 1309.17 1011.66 1299.08 1017.13 1266.63 1017.13"/><circle cx="1265.09" cy="1011.96" r="8.1"/><polygon class="cls-18" points="918.34 1148.08 1379.84 1148.08 916.77 1193.37 918.34 1148.08"/><path class="cls-18" d="M936.43,1369.68h649.06L828.89,1514.8a6.27,6.27,0,0,1-6.32-9.75l83.57-119.58A37,37,0,0,1,936.43,1369.68Z"/><path class="cls-19" d="M1719.25,1505.7,1631,1381.6l-2.44-11.46V1148.08h35.33a6.27,6.27,0,0,0,4.4-10.73L1476.31,948,1277.85,752.18a6.26,6.26,0,0,0-8.8,0L1070.59,948l-192,189.39a6.27,6.27,0,0,0,4.4,10.73h35.33v222.06l-96.4,135.56a6.27,6.27,0,0,0,5.11,9.9h35.88v762.93h801.38V1515.6h49.83A6.27,6.27,0,0,0,1719.25,1505.7Z"/><path d="M1293.83,1212h32.94a6.71,6.71,0,0,1,6.71,6.71v122.36a0,0,0,0,1,0,0h-46.37a0,0,0,0,1,0,0V1218.74a6.71,6.71,0,0,1,6.71-6.71Z"/><path d="M1373.25,1212h32.94a6.71,6.71,0,0,1,6.71,6.71v122.36a0,0,0,0,1,0,0h-46.37a0,0,0,0,1,0,0V1218.74A6.71,6.71,0,0,1,1373.25,1212Z"/><path d="M1452.67,1212h32.94a6.71,6.71,0,0,1,6.71,6.71v122.36a0,0,0,0,1,0,0H1446a0,0,0,0,1,0,0V1218.74a6.71,6.71,0,0,1,6.71-6.71Z"/><path d="M1214.42,1212h32.94a6.71,6.71,0,0,1,6.71,6.71v122.36a0,0,0,0,1,0,0H1207.7a0,0,0,0,1,0,0V1218.74A6.71,6.71,0,0,1,1214.42,1212Z"/><path d="M1532.09,1212H1565a6.71,6.71,0,0,1,6.71,6.71v122.36a0,0,0,0,1,0,0h-46.37a0,0,0,0,1,0,0V1218.74A6.71,6.71,0,0,1,1532.09,1212Z"/><path class="cls-18" d="M1494.75,1515.6h-630v75.7l630.5-66C1501.4,1524.69,1500.92,1515.6,1494.75,1515.6Z"/><path class="cls-3" d="M970,1684.49h79.43a16.19,16.19,0,0,1,16.19,16.19v573.2a0,0,0,0,1,0,0H953.77a0,0,0,0,1,0,0v-573.2A16.19,16.19,0,0,1,970,1684.49Z"/><path class="cls-3" d="M1143.91,1684.49h79.43a16.19,16.19,0,0,1,16.19,16.19v573.2a0,0,0,0,1,0,0H1127.71a0,0,0,0,1,0,0v-573.2a16.19,16.19,0,0,1,16.19-16.19Z"/><path class="cls-3" d="M1317.85,1684.49h79.43a16.19,16.19,0,0,1,16.19,16.19v580.84a0,0,0,0,1,0,0H1301.66a0,0,0,0,1,0,0V1700.68a16.19,16.19,0,0,1,16.19-16.19Z"/><path class="cls-3" d="M1491.79,1684.49h79.43a16.19,16.19,0,0,1,16.19,16.19v573.2a0,0,0,0,1,0,0H1475.6a0,0,0,0,1,0,0v-573.2A16.19,16.19,0,0,1,1491.79,1684.49Z"/><polygon class="cls-20" points="1622.12 1126.59 1274.23 766.28 1600.37 1129.7 1622.12 1126.59"/></g></g></svg>