<svg id="Layer_1" data-name="Layer 1" xmlns="http://www.w3.org/2000/svg" xmlns:xlink="http://www.w3.org/1999/xlink" viewBox="0 0 750 420"><defs><style>.cls-1{fill:none;}.cls-2{fill:#eff9f8;}.cls-3{fill:#ff725e;}.cls-4{fill:#455a64;}.cls-5{fill:#e0e0e0;}.cls-6{fill:#33475b;}.cls-7{fill:#263238;}.cls-8{fill:#00bda5;}.cls-9{fill:#fff;}.cls-10{fill:#fafafa;}.cls-11{fill:#ffbe9d;}.cls-12{opacity:0.3;}.cls-13{fill:#eb996e;}.cls-14{opacity:0.4;}.cls-15{fill:#cbd6e2;}.cls-16{fill:#7c98b6;}.cls-17{fill:#253342;}.cls-18{clip-path:url(#clip-path);}.cls-19{fill:#f5f5f5;}</style><clipPath id="clip-path"><path class="cls-1" d="M552.59,292.65l-2.16,19.64a4.72,4.72,0,0,1-.11.74,8.58,8.58,0,0,1-8.59,6.73h-9.65a3,3,0,0,1-3-3,3.18,3.18,0,0,1,.06-.62l4.55-23.57a3.32,3.32,0,0,1,3.24-2.64h13.2a2.48,2.48,0,0,1,2.48,2.5c0,.08,0,.17,0,.26Z"/></clipPath></defs><rect class="cls-2" x="-8.63" y="-3.72" width="768.82" height="430.05"/><g id="freepik--Manual--inject-40"><path class="cls-3" d="M564,202.71h80a3,3,0,0,1,3,3V310.33a3,3,0,0,1-3,3H564V202.71Z"/><path class="cls-4" d="M564,202.71h80a3,3,0,0,1,3,3V310.33a3,3,0,0,1-3,3H564V202.71Z"/><rect class="cls-5" x="600.36" y="206.14" width="44.39" height="107.22"/><path class="cls-6" d="M563.68,201.84H638a3,3,0,0,1,3,3h0V310.33a3,3,0,0,1-3,3H563.68V201.84Z"/><path class="cls-7" d="M571.63,313.56s-.07-25-.07-55.86,0-55.86.07-55.86.07,25,.07,55.86S571.67,313.56,571.63,313.56Z"/><path class="cls-7" d="M573.72,313.56s-.08-25-.08-55.86,0-55.86.08-55.86.07,25,.07,55.86S573.76,313.56,573.72,313.56Z"/><rect class="cls-8" x="571.63" y="201.84" width="2.09" height="111.72"/><polygon class="cls-8" points="617.67 214.61 617.67 201.84 629.96 201.84 629.96 214.84 623.93 220.87 617.67 214.61"/><path class="cls-7" d="M642.15,206.14s.08,23.74.08,53,0,53-.08,53-.07-23.74-.07-53S642.12,206.14,642.15,206.14Z"/><path class="cls-7" d="M643.42,206.14s.07,23.74.07,53,0,53-.07,53-.07-23.74-.07-53S643.38,206.14,643.42,206.14Z"/><polygon class="cls-4" points="642.16 221.57 645.24 221.57 648.06 223.7 645.53 226.22 642.16 226.22 642.16 221.57"/><rect class="cls-8" x="643.42" y="230.71" width="5.82" height="3.87"/><path class="cls-8" d="M620.93,272.88l-3.48,3.37a.91.91,0,0,1-1.28,0l-23.92-22.9a.92.92,0,0,1,0-1.3l3.63-3.79a.93.93,0,0,1,1.3,0h0l23.78,23.31a.91.91,0,0,1,0,1.29Z"/><path class="cls-7" d="M598.64,249.8a6.7,6.7,0,0,1-1,1.1,7.78,7.78,0,0,1-1.06,1,6.7,6.7,0,0,1,1-1.1A7.78,7.78,0,0,1,598.64,249.8Z"/><path class="cls-7" d="M602.45,253.46a15,15,0,0,1-2,2.11,6.7,6.7,0,0,1,1-1.1A7.31,7.31,0,0,1,602.45,253.46Z"/><path class="cls-7" d="M600.46,251.48a28.47,28.47,0,0,1-2.72,2.81,13,13,0,0,1,1.31-1.46A13.82,13.82,0,0,1,600.46,251.48Z"/><path class="cls-7" d="M604.37,255.39a28.47,28.47,0,0,1-2.72,2.81,26,26,0,0,1,2.73-2.82Z"/><path class="cls-7" d="M606.17,257.18a7.87,7.87,0,0,1-1,1.11,7.17,7.17,0,0,1-1.06,1,6.7,6.7,0,0,1,1-1.1A7.31,7.31,0,0,1,606.17,257.18Z"/><path class="cls-7" d="M608.1,259.11a13.92,13.92,0,0,1-1.32,1.45,12.85,12.85,0,0,1-1.4,1.36,13,13,0,0,1,1.31-1.46A12.81,12.81,0,0,1,608.1,259.11Z"/><path class="cls-7" d="M609.89,260.9a15,15,0,0,1-2,2.11,6.7,6.7,0,0,1,1-1.1A7.31,7.31,0,0,1,609.89,260.9Z"/><path class="cls-7" d="M611.81,262.82a12.17,12.17,0,0,1-1.32,1.46,12.85,12.85,0,0,1-1.4,1.36,13,13,0,0,1,1.31-1.46A13.92,13.92,0,0,1,611.81,262.82Z"/><path class="cls-7" d="M613.6,264.62a14.41,14.41,0,0,1-2,2.11,7.22,7.22,0,0,1,1-1.11A8.36,8.36,0,0,1,613.6,264.62Z"/><path class="cls-7" d="M615.53,266.53a12.17,12.17,0,0,1-1.32,1.46,12.76,12.76,0,0,1-1.4,1.35,13.83,13.83,0,0,1,1.31-1.45A12.1,12.1,0,0,1,615.53,266.53Z"/><path class="cls-7" d="M617.32,268.34a6.7,6.7,0,0,1-1,1.1,7.78,7.78,0,0,1-1.06,1,6.7,6.7,0,0,1,1-1.1A7.78,7.78,0,0,1,617.32,268.34Z"/><path class="cls-8" d="M608.3,257.59l3.35,3.14,2.25-2.22s3.62,1.13,6-1.44a7.31,7.31,0,0,0,1.49-5.72l-3.9,3.45-3.31-3.3,3.49-3.62a6,6,0,0,0-6.08,1.93,6,6,0,0,0-1,5.5Z"/><path class="cls-8" d="M604.14,266.76c-.09-.15-3.35-3.14-3.35-3.14l-2.12,2.08s-4-.79-5.95,1.45a7,7,0,0,0-1.49,5.71l3.9-3.44,3.3,3.3L595,276.33a6,6,0,0,0,6.08-1.92,5.93,5.93,0,0,0,1-5.49Z"/><path class="cls-9" d="M631.69,301c0,.05-10.57.08-23.6.08s-23.6,0-23.6-.08,10.57-.07,23.6-.07S631.69,301,631.69,301Z"/><path class="cls-9" d="M623.81,303.27s-6.95.08-15.51.08-15.52,0-15.52-.08,7-.07,15.52-.07S623.81,303.23,623.81,303.27Z"/><rect class="cls-5" x="606.23" y="305.43" width="3.72" height="3.72"/></g><g id="freepik--Character--inject-562"><path class="cls-7" d="M289,88.66c2.36-1,4.88,1.15,6.17,3.37s2.33,4.91,4.68,5.94c1.83.8,3.93.34,5.93.42,6.14.24,10.89,5.54,13.65,11,1.72,3.43,3,7.37,1.83,11-1,3.21-3.71,5.6-6.53,7.44a32.34,32.34,0,0,1-19.16,5.44,24.76,24.76,0,0,1-17.69-8.64A29.29,29.29,0,0,1,272,110.34a86.89,86.89,0,0,1-.43-15.64"/><path class="cls-4" d="M315.51,115.72c-.05,0,0-.56-.11-1.53a11.63,11.63,0,0,0-1.14-4,12.61,12.61,0,0,0-3.87-4.67,16.13,16.13,0,0,0-6.87-2.9c-2.61-.47-5.22-.23-7.57-.72a12.16,12.16,0,0,1-5.53-2.87,19,19,0,0,1-2.8-3.14c-.28-.41-.5-.72-.64-1a2.31,2.31,0,0,1-.18-.35c.34.38.66.79,1,1.2a21.42,21.42,0,0,0,2.86,3,11.73,11.73,0,0,0,5.42,2.7c2.26.47,4.86.22,7.56.7a16,16,0,0,1,7,3,12.88,12.88,0,0,1,3.92,4.86,11.57,11.57,0,0,1,1,4.09,7.23,7.23,0,0,1,0,1.14A1.39,1.39,0,0,1,315.51,115.72Z"/><path class="cls-8" d="M339.4,104.5l-9,33.84L312,118.6a47.79,47.79,0,0,0-28.5-7.73h0L255,109.54l-15.76,5.67a58.36,58.36,0,0,0-10.87,5.28l-30.71,21.2c-6.5,4.69-11.84,8.28-13.09,15.45-1.65,9.44,3.13,20,13.08,21.77l43.44.53,1.34,27.47,68.29-6.36-1.83-41.45c13.94,10.74,20.49,14.92,31,12.88,3.49-.68,8.48-4.35,10.11-9.8,5.79-19.39,6.78-49.91,6.78-49.91ZM232.31,153.06l4-1.12.25,1.43Z"/><path class="cls-7" d="M197,178.93h5.58l15.27,0h50.53l-.22.21c0-.49.05-1,.07-1.56.32-6.82.63-13.42.91-19.56l.2.23c-15.37-1.43-28.55-3.65-37.95-4.84-4.7-.62-8.46-1-11-1.33l-2.95-.33-.76-.09-.26,0h.26l.77.06,3,.25c2.57.25,6.34.63,11.06,1.21,9.44,1.12,22.59,3.27,37.94,4.68h.21V158c-.28,6.13-.58,12.74-.86,19.56,0,.53-.05,1.06-.08,1.55v.22h-.21l-50.53-.17L202.52,179l-4.15-.05H197.3A1.88,1.88,0,0,1,197,178.93Z"/><path class="cls-7" d="M197.84,149.58a2.52,2.52,0,0,1,.7-.34,13.9,13.9,0,0,1,2-.66A20,20,0,0,1,214.2,150,15.89,15.89,0,0,1,216,151a3.16,3.16,0,0,1,.62.47c0,.07-1-.53-2.58-1.23a22,22,0,0,0-13.46-1.35C198.9,149.26,197.87,149.66,197.84,149.58Z"/><path class="cls-7" d="M207.29,141.7a8.17,8.17,0,0,1,1.87,1,36,36,0,0,1,4.12,3,13.86,13.86,0,0,1,3.43,3.8,3.32,3.32,0,0,1,.35,1.55,1.14,1.14,0,0,1-.13.57,4.36,4.36,0,0,0-.5-2,15.24,15.24,0,0,0-3.43-3.6c-1.5-1.29-2.94-2.36-4-3.1A13.22,13.22,0,0,1,207.29,141.7Z"/><path class="cls-7" d="M236.85,153.53a19.08,19.08,0,0,1-.77-2.68c-.43-1.67-1-4-1.71-6.5s-1.43-4.79-2-6.41a22.54,22.54,0,0,1-.93-2.62,2.5,2.5,0,0,1,.39.65c.22.43.5,1.06.86,1.86a57.88,57.88,0,0,1,2.14,6.4c.7,2.57,1.21,4.86,1.56,6.55A16,16,0,0,1,236.85,153.53Z"/><path class="cls-7" d="M309.73,178.33c-.12,0-.61-10.3-1.1-23s-.78-23.06-.65-23.06.62,10.3,1.1,23S309.86,178.33,309.73,178.33Z"/><path class="cls-7" d="M334.84,156.52a3.27,3.27,0,0,1-.4-.64c-.23-.43-.52-1.07-.85-1.87a40.79,40.79,0,0,1-3.17-13.13c-.06-.86-.08-1.57-.07-2a3,3,0,0,1,.07-.79,23.68,23.68,0,0,1,.33,2.78,53.42,53.42,0,0,0,3.1,13.07A26.08,26.08,0,0,1,334.84,156.52Z"/><path class="cls-10" d="M306.79,138a.67.67,0,0,1-.23-.1l-.64-.3a18.22,18.22,0,0,0-2.53-1,19.55,19.55,0,0,0-9.87-.5,20.66,20.66,0,0,0-6.35,2.58c-2.13,1.25-4.29,2.85-6.62,4.4a25.56,25.56,0,0,1-8,3.76,23.46,23.46,0,0,1-9.44.39,26.76,26.76,0,0,1-4.66-1.27,24.23,24.23,0,0,1-4.18-2.14,22,22,0,0,1-3.52-2.86,31.46,31.46,0,0,1-2.82-3.28c-1.72-2.25-3.15-4.49-4.63-6.5a29.18,29.18,0,0,0-4.59-5.15,18.24,18.24,0,0,0-4.82-3,12.39,12.39,0,0,0-4.16-.93,11.07,11.07,0,0,0-3.61.51l.23-.09.67-.24c.3-.09.68-.16,1.13-.25a10.62,10.62,0,0,1,1.59-.11,12.1,12.1,0,0,1,4.24.86,18.32,18.32,0,0,1,4.93,3A27.6,27.6,0,0,1,243.6,131c1.5,2,3,4.24,4.66,6.45a33.18,33.18,0,0,0,2.8,3.24,23,23,0,0,0,3.43,2.79,24.43,24.43,0,0,0,4.11,2.09,25,25,0,0,0,4.58,1.24,23,23,0,0,0,9.28-.37,25.19,25.19,0,0,0,7.87-3.68c2.35-1.53,4.49-3.12,6.67-4.38a20.83,20.83,0,0,1,6.47-2.58,19.17,19.17,0,0,1,10,.65,17.85,17.85,0,0,1,2.51,1.07l.62.35Z"/><path class="cls-10" d="M323.55,131a4.11,4.11,0,0,1,.1,1.05,15.47,15.47,0,0,1-1.61,7,26.09,26.09,0,0,1-2.83,4.44,21.16,21.16,0,0,1-7.45,6,18.93,18.93,0,0,1-2.71,1,4,4,0,0,1-1,.23c0-.08,1.45-.45,3.61-1.55a22.17,22.17,0,0,0,7.24-5.95,27.7,27.7,0,0,0,2.81-4.36,16,16,0,0,0,1.43-4A36.48,36.48,0,0,0,323.55,131Z"/><path class="cls-10" d="M333.94,172a2.64,2.64,0,0,1-.33-.18,10.29,10.29,0,0,1-.86-.61,14.29,14.29,0,0,1-2.75-2.85,21.14,21.14,0,0,1-3.87-12.3,42.91,42.91,0,0,1,2.22-12.8c.49-1.6.93-2.87,1.24-3.75a9.11,9.11,0,0,1,.53-1.34,11.51,11.51,0,0,1-.36,1.4c-.29,1-.66,2.24-1.11,3.77a46.62,46.62,0,0,0-2.08,12.72,21.68,21.68,0,0,0,3.66,12.15A19.31,19.31,0,0,0,333.94,172Z"/><path class="cls-10" d="M354.18,133.55a4.15,4.15,0,0,1-.86.45c-.55.26-1.35.61-2.36,1a21.66,21.66,0,0,1-8.32,1.41,14,14,0,0,1-7.91-2.83,10.11,10.11,0,0,1-1.81-1.83,3.13,3.13,0,0,1-.49-.8,18.07,18.07,0,0,0,2.49,2.38,14.41,14.41,0,0,0,7.73,2.63,23.1,23.1,0,0,0,8.2-1.26C352.92,134,354.14,133.48,354.18,133.55Z"/><path class="cls-10" d="M226.46,152.5c-.08,0-.42-1.34-1.22-3.43a38.72,38.72,0,0,0-9.69-14.53c-1.64-1.55-2.76-2.4-2.71-2.46a4.24,4.24,0,0,1,.86.53c.72.54,1.42,1.11,2.09,1.72A34.69,34.69,0,0,1,225.56,149a23.7,23.7,0,0,1,.75,2.58A3.76,3.76,0,0,1,226.46,152.5Z"/><path class="cls-10" d="M236.49,154a1.91,1.91,0,0,1-.23.45,9.22,9.22,0,0,1-.81,1.22,13.44,13.44,0,0,1-4.17,3.44,24.87,24.87,0,0,1-7.59,2.48c-3,.5-6.27.71-9.66,1.26a28,28,0,0,0-4.86,1.19,20.11,20.11,0,0,0-4.16,2,21.35,21.35,0,0,0-5.67,5.42,22,22,0,0,0-2.5,4.69c-.47,1.18-.61,1.87-.66,1.85a2.1,2.1,0,0,1,.09-.5,11.34,11.34,0,0,1,.4-1.41,20.29,20.29,0,0,1,2.42-4.81,20.88,20.88,0,0,1,5.7-5.58,20,20,0,0,1,4.24-2.12,29.76,29.76,0,0,1,4.92-1.23c3.44-.55,6.73-.74,9.67-1.22a25.16,25.16,0,0,0,7.51-2.35,13.88,13.88,0,0,0,4.18-3.23C236.12,154.58,236.44,154,236.49,154Z"/><path class="cls-10" d="M254.81,156.34a3.25,3.25,0,0,1,.3.86,16.27,16.27,0,0,1,.51,2.38,22,22,0,0,1,.21,3.63,22.7,22.7,0,0,1-1.89,8.63,22.25,22.25,0,0,1-1.72,3.19,17.49,17.49,0,0,1-1.46,2c-.39.43-.6.66-.63.64s.77-1,1.82-2.76a25.76,25.76,0,0,0,1.61-3.19,26.42,26.42,0,0,0,1.31-4.16,25.14,25.14,0,0,0,.55-4.33,23.5,23.5,0,0,0-.12-3.56C255.08,157.58,254.73,156.36,254.81,156.34Z"/><path class="cls-10" d="M308.31,169.35a24.24,24.24,0,0,0-5.77-1.65,25.17,25.17,0,0,0-6,.24,5.46,5.46,0,0,1,1.72-.53,14.14,14.14,0,0,1,8.51,1A5.2,5.2,0,0,1,308.31,169.35Z"/><polygon class="cls-11" points="348.34 83.21 339.7 104.65 355.95 111.93 360.13 93.69 348.34 83.21"/><path class="cls-6" d="M367,104.37,352.39,86.26h0c-2.94-4.07-7.63-10.62-7.84-11.16a48.5,48.5,0,0,1-.28-8.19,45.21,45.21,0,0,0-.37-5.7l-12,4.55-2.57-9.27-1.65.52s-4.35,7.53-3,11.81,7,6.22,8.44,7.09,6.76,3.17,12.79,12.27l1,1.41h0l2.45,3.54h0l11.16,16.05a4.06,4.06,0,0,0,6.73-4.53,2.32,2.32,0,0,0-.22-.3Z"/><path class="cls-6" d="M338.32,63.28l-3.14-8.86,1.13-.36s5.55,3.43,6.74,7.43Z"/><path class="cls-7" d="M335,75l.13-.06.38-.17,1.42-.63,5.15-2.34-.13-.08a13.7,13.7,0,0,0,0,1.57A4.4,4.4,0,0,0,342.3,75c.59,1,1.31,2,2.05,3.07,1.48,2.11,3.13,4.39,4.87,6.76a2,2,0,0,1,.5,1,1.66,1.66,0,0,1-2,1.88,1.64,1.64,0,0,1-.86-.5c-.21-.27-.43-.59-.64-.86L345,84.62l-4.35-5.87a5.37,5.37,0,0,0-1.08-1c-.38-.28-.74-.52-1.09-.75-.69-.45-1.31-.81-1.82-1.09s-.91-.5-1.17-.65l-.32-.15H335l.1.06.3.18,1.15.68c.51.3,1.11.67,1.79,1.12.35.23.72.48,1.08.77a4.42,4.42,0,0,1,1,1l4.29,5.89L346,86.51c.22.29.41.58.65.86a1.93,1.93,0,0,0,1,.57A1.9,1.9,0,0,0,350,85.8a2.37,2.37,0,0,0-.54-1.1c-1.72-2.37-3.43-4.64-4.89-6.75-.73-1-1.47-2.06-2-3a4.15,4.15,0,0,1-.37-1.58,10.15,10.15,0,0,1,0-1.56v-.14l-.13.06-5.15,2.45-1.38.67-.35.17Z"/><g class="cls-12"><polygon points="333.85 70.67 339.25 68.67 339.22 65.64 333.76 67.72 333.85 70.67"/></g><path class="cls-7" d="M338.07,65.46a5.43,5.43,0,0,0-.22,2.23,5.61,5.61,0,0,0,.26,2.23,5.26,5.26,0,0,0,.21-2.23A5.62,5.62,0,0,0,338.07,65.46Z"/><path class="cls-7" d="M336.43,66.06a5.67,5.67,0,0,0-.21,2.24,5.41,5.41,0,0,0,.26,2.22,5.42,5.42,0,0,0,.2-2.23A5.45,5.45,0,0,0,336.43,66.06Z"/><path class="cls-7" d="M334.86,66.45a5.6,5.6,0,0,0-.21,2.23,5.63,5.63,0,0,0,.26,2.23,5.67,5.67,0,0,0,.21-2.24A5.41,5.41,0,0,0,334.86,66.45Z"/><path class="cls-11" d="M340.26,103.27l.59-4.2.39-11.16-.43-7.8s2.58.19,4,3.56,1.46,8.51,1.46,8.51,10.9,4.29,7.06,14.59"/><path class="cls-11" d="M355,86.24a4.22,4.22,0,0,0-.5-2.51,3.62,3.62,0,0,0-2.43-1.51,7,7,0,0,0-2.66,0l2.05,2.86a41.9,41.9,0,0,0-.91,5.22c-.11.91-.1,2,.68,2.49a1.72,1.72,0,0,0,2-.45,4.85,4.85,0,0,0,.93-2A18.82,18.82,0,0,0,355,86.24Z"/><path class="cls-11" d="M358.1,89.55a4.33,4.33,0,0,0-.5-2.52,3.66,3.66,0,0,0-2.44-1.51,7,7,0,0,0-2.65,0l2.05,2.86a40.28,40.28,0,0,0-.91,5.23c-.11.86-.11,2,.68,2.49a1.72,1.72,0,0,0,2-.46,4.85,4.85,0,0,0,.92-2A19,19,0,0,0,358.1,89.55Z"/><path class="cls-11" d="M361.32,92.81a4.25,4.25,0,0,0-.5-2.52,3.62,3.62,0,0,0-2.43-1.51,7,7,0,0,0-2.66,0l2,2.85a42.38,42.38,0,0,0-.91,5.23c-.11.91-.1,2,.68,2.5a1.72,1.72,0,0,0,2-.46,5.07,5.07,0,0,0,.9-2.06A19.17,19.17,0,0,0,361.32,92.81Z"/><path class="cls-13" d="M354.8,84.23A8.05,8.05,0,0,1,355,88a8.15,8.15,0,0,1-1.21,3.61c-.13-.05.49-1.63.77-3.68S354.67,84.24,354.8,84.23Z"/><path class="cls-13" d="M358.09,88.71a8,8,0,0,1-1.36,6.43c-.12-.07.57-1.39.93-3.16S358,88.72,358.09,88.71Z"/><path class="cls-13" d="M345,84.23a14.27,14.27,0,0,1,.47,2.25c.25,1.41.59,3.43,1,5.81l-.13-.17a11.72,11.72,0,0,1,7.1,6.86,11.85,11.85,0,0,1,.86,4.11,11.58,11.58,0,0,1-.26,2.82,3.6,3.6,0,0,1-.3,1,22,22,0,0,0,.24-3.8,12,12,0,0,0-.92-4,11.7,11.7,0,0,0-2.8-4.11,11.5,11.5,0,0,0-4.07-2.5H346v-.12c-.34-2.38-.62-4.41-.8-5.84A16.71,16.71,0,0,1,345,84.23Z"/><path class="cls-7" d="M343.88,61.18l-.19.08-.55.2-2,.76-6.66,2.57-6.65,2.58-2,.75-.55.2c-.12.05-.19.07-.19.06l.18-.08.54-.24,2-.85c1.71-.68,4-1.61,6.63-2.58s5-1.88,6.69-2.49c.86-.3,1.55-.54,2-.69l.56-.18A.67.67,0,0,1,343.88,61.18Z"/><path class="cls-11" d="M269.33,161.06s10.69-2.93,12.52-3c1.4,0,9.51,1.33,13.25,2a2.71,2.71,0,0,1,2.29,3,2.5,2.5,0,0,1-.07.26,2.47,2.47,0,0,1-2.06,1.58,2.87,2.87,0,0,1,1.56,3c-.29,2.11-2.91,2.17-2.91,2.17s.13.14.31.38a2.58,2.58,0,0,1-1.88,4l-1.19.09a2.53,2.53,0,0,1,1.22,2.33c-.47,2.77-6.8,2.35-6.8,2.35l-17-.32Z"/><path class="cls-11" d="M294.16,156.54c-.21.85-.72,2.82-2.41,3.43l-8.59-1.65s6.76-1.23,7.83-2.2a7.47,7.47,0,0,1,1.42-1,1.23,1.23,0,0,1,1.66.55A1.22,1.22,0,0,1,294.16,156.54Z"/><path class="cls-13" d="M287.25,158.89a13.42,13.42,0,0,0,3.89.86c2.17.27,3.94.48,4,.31a12.13,12.13,0,0,0-3.88-.85A16.61,16.61,0,0,0,287.25,158.89Z"/><path class="cls-13" d="M288.45,164a8.47,8.47,0,0,0,3.34.86,8.16,8.16,0,0,0,3.43-.08,15.22,15.22,0,0,0-3.38-.48A14.83,14.83,0,0,0,288.45,164Z"/><path class="cls-13" d="M284.16,162.71c-.14.06,0,.56.39.94s.94.42,1,.28-.26-.4-.6-.7S284.31,162.64,284.16,162.71Z"/><path class="cls-13" d="M286.64,169.3a25,25,0,0,0,7.44.88,13,13,0,0,0-3.69-.72A12.58,12.58,0,0,0,286.64,169.3Z"/><path class="cls-13" d="M282.1,166.25c-.07,0-.22.12-.32.46A1.82,1.82,0,0,0,282,168a1.84,1.84,0,0,0,1,.86c.33.09.54,0,.55,0a3.63,3.63,0,0,1-1.1-1.08C282.06,167.05,282.25,166.3,282.1,166.25Z"/><path class="cls-13" d="M284.55,174.44a10.25,10.25,0,0,0,3.38.38c1.86.05,3.38,0,3.38-.18s-1.5-.33-3.36-.38A10.9,10.9,0,0,0,284.55,174.44Z"/><path class="cls-13" d="M280.17,171c-.07,0-.21.15-.25.48a2.28,2.28,0,0,0,.28,1.25c.52.85,1.19,1.24,1.28,1.15s-.36-.71-.79-1.43S280.31,171,280.17,171Z"/><path class="cls-7" d="M235.89,76.48c-.35-2.75-3.37-4.68-6.11-4.29a7.43,7.43,0,0,0-5.7,5.41,12,12,0,0,0,.86,8.09c.86,2,2.37,4,4.51,4.39A5.82,5.82,0,0,0,234.76,88a17.23,17.23,0,0,0,2.83-5.25Z"/><path class="cls-8" d="M239.37,75.88a2.19,2.19,0,0,0-2.75.61,4.69,4.69,0,0,0-.86,2.9,11.68,11.68,0,0,0,1,5,1.79,1.79,0,0,0,1,1.13A1.29,1.29,0,0,0,239,85a3.18,3.18,0,0,0,.57-1.35,15.39,15.39,0,0,0-.42-8.66"/><path class="cls-8" d="M288,62.63c4.82-2.36,7.59-4.81,7.19-6.81s-10.11-5.1-12.39-5.94c-5.36-2-10.44,2.75-18.88,4.45-16.46,3.3-29.13,9.33-28.33,13.46.4,2,3.86,3.18,9.19,3.5"/><g class="cls-14"><path d="M285.13,63.06c4.29-2.09,6.87-4.29,6.38-6-1.31-4.86-13.15-4.29-27.75-1.32S238,64,238.69,67.65c.35,1.77,3.44,2.82,8.14,3.11"/></g><path class="cls-11" d="M246.86,69.21a20.59,20.59,0,0,1,16.67-23.89l.54-.09c10.9-1.62,21.05,6,23.27,16.78,2,9.44,3.7,19,3.85,22.51.43,10.54-5.52,15-7.95,16.31a13.83,13.83,0,0,1-2.74.86h0a.06.06,0,0,0-.05.08h0l3,12c1.48,7.87-2.58,15.17-10.41,16.74s-14.41-4.17-16-12Z"/><path class="cls-7" d="M284.13,68.58a1.72,1.72,0,0,1-1.26,2,1.6,1.6,0,0,1-2-1.11v0a1.71,1.71,0,0,1,1.25-2,1.61,1.61,0,0,1,2,1.1Z"/><path class="cls-7" d="M285.07,65c-.16.25-1.6-.42-3.36-.06s-2.89,1.5-3.12,1.33,0-.51.5-1a4.47,4.47,0,0,1,2.44-1.33,4.42,4.42,0,0,1,2.73.31C284.92,64.54,285.15,64.89,285.07,65Z"/><path class="cls-7" d="M266.73,72.07a1.72,1.72,0,0,1-1.25,2,1.61,1.61,0,0,1-2-1.1l0,0a1.73,1.73,0,0,1,1.26-2,1.61,1.61,0,0,1,2,1.08S266.73,72.05,266.73,72.07Z"/><path class="cls-7" d="M267.76,68.83c-.16.26-1.59-.41-3.36-.06s-2.88,1.51-3.12,1.33,0-.51.49-1a4.7,4.7,0,0,1,2.45-1.33,4.35,4.35,0,0,1,2.73.32C267.56,68.36,267.83,68.71,267.76,68.83Z"/><path class="cls-7" d="M276.8,80.66a11.57,11.57,0,0,1,2.77-1.09c.44-.14.86-.32.86-.64a2.45,2.45,0,0,0-.57-1.28l-2-3.17c-2.84-4.53-5-8.29-4.81-8.4s2.63,3.43,5.47,8l2,3.2a2.7,2.7,0,0,1,.59,1.72,1.12,1.12,0,0,1-.61.81,2.84,2.84,0,0,1-.74.26A11.17,11.17,0,0,1,276.8,80.66Z"/><path class="cls-13" d="M280.43,101.71s-6.72,1.93-16.3-1.49c0,0,4.51,8.49,17.09,4.71Z"/><path class="cls-13" d="M276.91,85.08a3.23,3.23,0,0,0-3.1-.61A3,3,0,0,0,272,85.94a1.87,1.87,0,0,0,.29,2.14,2.16,2.16,0,0,0,2.43.12,6.84,6.84,0,0,0,2-1.8,1.88,1.88,0,0,0,.4-.63.59.59,0,0,0-.14-.65"/><path class="cls-7" d="M271.84,82.93c.29-.08.67,1.85,2.58,2.88s3.92.41,4,.67-.38.47-1.24.67a4.88,4.88,0,0,1-3.31-.46,4.27,4.27,0,0,1-2.05-2.44C271.58,83.46,271.7,83,271.84,82.93Z"/><path class="cls-7" d="M267.28,63.12c-.07.51-1.88.64-3.91,1.31s-3.6,1.57-4,1.2c-.16-.18,0-.7.63-1.3a7.16,7.16,0,0,1,6-1.91C266.9,62.58,267.31,62.88,267.28,63.12Z"/><path class="cls-7" d="M283.51,60.58c-.23.46-1.54.29-3,.57s-2.65.85-3,.44c-.16-.18-.05-.62.42-1.11a4.42,4.42,0,0,1,4.85-.85C283.34,60,283.6,60.36,283.51,60.58Z"/><path class="cls-7" d="M271.73,52.29a11.45,11.45,0,0,1-7.35,6.49c-2.13.61-4.68.73-6,2.49-1,1.28-1,3-1.21,4.64-.35,2.45.27,5.26-1.59,6.87-1.46,1.26-2.84,1.22-3.73,2.93s-.72,4.12-.35,6.12.86,5.15-.78,6.42c-1.53-7.24-5.44-15-7-22.24a8.85,8.85,0,0,1-.28-3.28c.43-2.45,2.78-4,5-5.15,6.31-3.16,13.26-4.78,20.13-6.37"/><path class="cls-8" d="M290.71,54.71s-7.78-16.66-8.32-17.44S275.33,29.82,263,30l-9.86,2s-13.1,7.33-15,11.24.36,20.7.36,20.7l26.44-11.56,19.75.81Z"/><path class="cls-8" d="M259.33,28.66l2.72-.54a2.82,2.82,0,0,1,2.9,1.15,8.69,8.69,0,0,1,1.18,2.66c.82,3,5.74,23.92,5.74,23.92l-12.48,1.91-4.82-26-4,1.77-.08-.77a2.31,2.31,0,0,1,.27-1.36h0a2.22,2.22,0,0,1,1.51-1.12Z"/><path class="cls-8" d="M282.81,49.88l1,.63,7.5,3.56a92.31,92.31,0,0,0-26.83,1.08c-13.28,2.8-27.61,10.37-27.61,10.37l7.73-7.07h0a15.53,15.53,0,0,1,9.84-7l16.64-3.68A15.48,15.48,0,0,1,282.81,49.88Z"/><path class="cls-7" d="M287.5,57c2.38,5.31,10.67,12.87,2.72,20.21,0,0-2.51-12-4.43-16.51a9.69,9.69,0,0,0-2.3-3.61"/><path class="cls-7" d="M246.73,66.91A10.73,10.73,0,0,0,238.15,79c.27,1.42.86,2.82.68,4.29s-.93,2.64-1.28,4c-.7,2.7-.86,7.14.09,9.77,2.18,6.27,10.13,14,17.34,12.55"/><path class="cls-7" d="M252.07,104.4a4.73,4.73,0,0,0,4.19-1.26,8.83,8.83,0,0,0,2.23-3.93,15.31,15.31,0,0,0-2.8-13.81A22.41,22.41,0,0,0,256,64.2l-10.09,3Z"/><path class="cls-4" d="M236,82.66a4.49,4.49,0,0,1-1.6,1.43,7.76,7.76,0,0,1-5.06,1.11,7.66,7.66,0,0,1-4.65-2.3,3.23,3.23,0,0,1-1-1.92,8.32,8.32,0,0,0,1.21,1.72,8,8,0,0,0,4.48,2.08,8.19,8.19,0,0,0,4.85-1C235.37,83.2,235.94,82.6,236,82.66Z"/><path class="cls-4" d="M235.22,81.3a4.29,4.29,0,0,1-1.77.64A9.11,9.11,0,0,1,225,79.22,4.31,4.31,0,0,1,224,77.66c.06,0,.47.56,1.29,1.34a9.89,9.89,0,0,0,8.15,2.63C234.52,81.47,235.2,81.23,235.22,81.3Z"/><path class="cls-4" d="M257.14,67a3.5,3.5,0,0,1-.06,1,13.28,13.28,0,0,1-.65,2.7A15.19,15.19,0,0,1,242.5,81a12.91,12.91,0,0,1-2.77-.18,3.79,3.79,0,0,1-1-.25,27.64,27.64,0,0,0,3.75.11A15.51,15.51,0,0,0,256.14,70.6,31.74,31.74,0,0,0,257.14,67Z"/><path class="cls-4" d="M257.46,82.12a3.79,3.79,0,0,1-.5.59A8.69,8.69,0,0,1,255.24,84a13.3,13.3,0,0,1-6.75,1.71,26.6,26.6,0,0,1-6.87-1.06c-.86-.24-1.55-.45-2-.61a2.79,2.79,0,0,1-.72-.29,22.79,22.79,0,0,1,2.82.59,31.91,31.91,0,0,0,6.81.93,14.14,14.14,0,0,0,6.6-1.54A23.79,23.79,0,0,0,257.46,82.12Z"/><path class="cls-7" d="M291.15,53a2.43,2.43,0,0,1-.6-.17l-1.67-.6L282.76,50h0l-1.58-1.41a9.52,9.52,0,0,0-1.77-1.39,5.58,5.58,0,0,0-2.25-.7,10.17,10.17,0,0,0-2.58.24c-3.5.59-7.34,1.4-11.34,2.33-3.72.86-7.27,1.71-10.51,2.57a7.18,7.18,0,0,0-2.24.86A5.37,5.37,0,0,0,248.87,54c-.8,1.24-1.5,2.49-2.17,3.6h0L240.75,62l-1.64,1.18a3.68,3.68,0,0,1-.58.39,4,4,0,0,1,.53-.47l1.58-1.25,5.77-4.49v0c.67-1.13,1.33-2.36,2.15-3.66a5.81,5.81,0,0,1,1.72-1.63,7.34,7.34,0,0,1,2.34-.86c3.25-.86,6.79-1.72,10.53-2.58,4-.92,7.84-1.71,11.37-2.31a10.17,10.17,0,0,1,2.64-.21,6.18,6.18,0,0,1,2.4.75,10.69,10.69,0,0,1,1.82,1.46l1.55,1.44h-.05L289,52.12l1.64.66A5.1,5.1,0,0,1,291.15,53Z"/><path class="cls-7" d="M258,50.09a4.22,4.22,0,0,1-.24-.86c-.13-.56-.3-1.36-.5-2.35-.41-2-.94-4.73-1.51-7.73-.26-1.52-.53-3-.77-4.29-.11-.65-.21-1.28-.32-1.87a.79.79,0,0,0-.9-.68l-.11,0-2.2.86a2.87,2.87,0,0,1-.86.27,3.88,3.88,0,0,1,.77-.43c.52-.26,1.23-.61,2.18-1a1.14,1.14,0,0,1,1.43.72,1,1,0,0,1,0,.14c.12.59.24,1.22.37,1.87.25,1.33.51,2.77.8,4.3.56,3,1,5.79,1.37,7.79.16,1,.29,1.81.37,2.37A3,3,0,0,1,258,50.09Z"/><path class="cls-7" d="M269.88,47.44A11.17,11.17,0,0,1,269,45c-.48-1.57-1-3.75-1.59-6.16s-1.07-4.61-1.4-6.2a14,14,0,0,1-.45-2.57,15.46,15.46,0,0,1,.76,2.57c.41,1.58.95,3.76,1.53,6.17s1.05,4.46,1.45,6.18A21.48,21.48,0,0,1,269.88,47.44Z"/><path class="cls-7" d="M290.93,81.94a14,14,0,0,0,5.1-1.22,10.92,10.92,0,0,0,4.4-3.44,8.24,8.24,0,0,0,1.09-6.59,8.72,8.72,0,0,0-3.88-5.48,55.73,55.73,0,0,0-5.26-2.29,8.89,8.89,0,0,1-3.16-2.3,4.72,4.72,0,0,1-.6-.86c-.1-.21-.15-.33-.13-.34a11.77,11.77,0,0,0,.85,1.12,9.57,9.57,0,0,0,3.19,2.1,49.74,49.74,0,0,1,5.34,2.23A8.93,8.93,0,0,1,302,70.6a8.58,8.58,0,0,1-1.17,6.93A11.08,11.08,0,0,1,296.18,81a11.94,11.94,0,0,1-3.8,1,6.25,6.25,0,0,1-1.06,0A1.06,1.06,0,0,1,290.93,81.94Z"/><path class="cls-7" d="M226.68,78.52s-.07,0-.19-.15a3.3,3.3,0,0,1-.48-.51,5.39,5.39,0,0,1-1-2.36,5.67,5.67,0,0,1,.68-3.74,5.61,5.61,0,0,1,7.75-1.67,6,6,0,0,1,.57.42,5.72,5.72,0,0,1,1.76,3.36,5.48,5.48,0,0,1-.23,2.57,3.64,3.64,0,0,1-.3.63.68.68,0,0,1-.14.2s.12-.31.27-.86a6,6,0,0,0,.09-2.45,5.5,5.5,0,0,0-1.72-3.1,5.27,5.27,0,0,0-7.42.76,3.79,3.79,0,0,0-.3.4,5.5,5.5,0,0,0-.72,3.43,5.7,5.7,0,0,0,.8,2.3C226.48,78.25,226.71,78.48,226.68,78.52Z"/><path class="cls-7" d="M253.4,108.17a1.74,1.74,0,0,1-.36.13l-1.06.27a23.31,23.31,0,0,1-4,.59,12.94,12.94,0,0,1-5.9-.91,11.42,11.42,0,0,1-5.31-5A15,15,0,0,1,235,96.18a20.78,20.78,0,0,1,.86-5.92,28.38,28.38,0,0,1,1.41-3.76c.19-.43.36-.76.48-1a1.55,1.55,0,0,1,.2-.32,14.24,14.24,0,0,1-.52,1.37,31,31,0,0,0-1.26,3.78,21.16,21.16,0,0,0-.78,5.82,14.65,14.65,0,0,0,1.77,6.86,11.08,11.08,0,0,0,5.08,4.84,13.1,13.1,0,0,0,5.77,1,27.73,27.73,0,0,0,4-.44A11.53,11.53,0,0,1,253.4,108.17Z"/><path class="cls-7" d="M235.08,87a1.45,1.45,0,0,1-.1.41,5.07,5.07,0,0,1-.55,1.09,6.51,6.51,0,0,1-3.6,2.57,6.34,6.34,0,0,1-3.09.14,7.62,7.62,0,0,1-3.23-1.51,8.62,8.62,0,0,1-2.45-3.07,9.75,9.75,0,0,1-.91-4.12,11.84,11.84,0,0,1,2.67-7.54A7.51,7.51,0,0,1,229.61,72a5.92,5.92,0,0,1,4.09,1.62,3.2,3.2,0,0,1,.92,1.34,7,7,0,0,0-1-1.21,5.91,5.91,0,0,0-4-1.43,7.23,7.23,0,0,0-5.47,2.88,11.49,11.49,0,0,0-2.57,7.28,9.42,9.42,0,0,0,.86,3.94,8.45,8.45,0,0,0,2.31,2.93,7.42,7.42,0,0,0,3,1.47,6.13,6.13,0,0,0,2.95-.09,6.46,6.46,0,0,0,3.53-2.35A10.37,10.37,0,0,0,235.08,87Z"/><rect class="cls-6" x="188.56" y="179.75" width="304.37" height="201.28" rx="12.51"/><path class="cls-6" d="M176.67,368H506.43v2.34a15.29,15.29,0,0,1-15.28,15.28H191.94a15.28,15.28,0,0,1-15.27-15.28V368Z"/><rect class="cls-7" x="196.73" y="187.75" width="287.18" height="169.98"/><polygon class="cls-7" points="310.74 366.14 314.84 372.65 372.42 372.65 376.22 366.14 310.74 366.14"/><rect class="cls-15" x="202.65" y="193.5" width="275.94" height="163.67" rx="2.81"/><polygon class="cls-10" points="478.29 357.42 202.36 357.42 202.65 205.74 478.29 205.74 478.29 357.42"/><path class="cls-7" d="M225.28,199.84a2.21,2.21,0,1,1-2.21-2.2h0a2.2,2.2,0,0,1,2.2,2.19Z"/><path class="cls-7" d="M212,199.84a2.21,2.21,0,1,1-2.2-2.2h0a2.19,2.19,0,0,1,2.2,2.19Z"/><path class="cls-7" d="M218.33,199.84a2.21,2.21,0,1,1-2.2-2.2h0A2.2,2.2,0,0,1,218.33,199.84Z"/><path class="cls-7" d="M490.32,366.14c0,.11-67.56.2-150.87.2s-150.89-.09-150.89-.2,67.55-.19,150.89-.19S490.32,366,490.32,366.14Z"/><path class="cls-5" d="M375.84,327.82c0,.12-16.55.22-37,.22s-37-.1-37-.22,16.55-.23,37-.23S375.84,327.74,375.84,327.82Z"/><rect class="cls-15" x="209.03" y="288.94" width="82.34" height="61.89"/><polygon class="cls-16" points="209.06 350.87 237.78 312.37 255.62 336.43 267.7 323.55 291.4 350.8 209.06 350.87"/><path class="cls-16" d="M263.16,307.64a6.49,6.49,0,1,1-6.49-6.48,6.49,6.49,0,0,1,6.49,6.48Z"/><rect class="cls-15" x="386.7" y="289.04" width="82.34" height="61.89"/><polygon class="cls-16" points="386.73 350.97 415.46 312.47 433.29 336.52 445.36 323.64 469.07 350.89 386.73 350.97"/><path class="cls-16" d="M440.83,307.73a6.49,6.49,0,1,1-6.5-6.48h0A6.49,6.49,0,0,1,440.83,307.73Z"/><path class="cls-5" d="M456,276.73a12.64,12.64,0,0,1,2.3-.15c1.43,0,3.44-.07,5.58-.07h2.42l-.22.22c0-1.59,0-3,.09-3.93a6.05,6.05,0,0,1,.13-1.53,6.55,6.55,0,0,1,.13,1.53c0,1,.06,2.34.08,3.93v.21H463.9c-2.18,0-4.15,0-5.58-.07A11.07,11.07,0,0,1,456,276.73Z"/><path class="cls-5" d="M435.41,276.73a61.08,61.08,0,0,1,10.3,0A59.05,59.05,0,0,1,435.41,276.73Z"/><path class="cls-5" d="M414.81,276.73a61.08,61.08,0,0,1,10.3,0A59.05,59.05,0,0,1,414.81,276.73Z"/><path class="cls-5" d="M394.21,276.73a61.08,61.08,0,0,1,10.3,0A59.05,59.05,0,0,1,394.21,276.73Z"/><path class="cls-5" d="M373.61,276.73a61.08,61.08,0,0,1,10.3,0A59.05,59.05,0,0,1,373.61,276.73Z"/><path class="cls-5" d="M353,276.73a61.08,61.08,0,0,1,10.3,0A59.05,59.05,0,0,1,353,276.73Z"/><path class="cls-5" d="M332.41,276.73a61.08,61.08,0,0,1,10.3,0A59.05,59.05,0,0,1,332.41,276.73Z"/><path class="cls-5" d="M311.81,276.73a61.08,61.08,0,0,1,10.3,0A59.05,59.05,0,0,1,311.81,276.73Z"/><path class="cls-5" d="M291.21,276.73a60.39,60.39,0,0,1,10.3,0,57.77,57.77,0,0,1-10.3,0Z"/><path class="cls-5" d="M270.61,276.73a60.39,60.39,0,0,1,10.3,0,57.77,57.77,0,0,1-10.3,0Z"/><path class="cls-5" d="M250,276.73a60.39,60.39,0,0,1,10.3,0,57.77,57.77,0,0,1-10.3,0Z"/><path class="cls-5" d="M229.4,276.73a30.58,30.58,0,0,1,5.15-.22,30.53,30.53,0,0,1,5.15.22,29.53,29.53,0,0,1-5.15.23A29.57,29.57,0,0,1,229.4,276.73Z"/><path class="cls-5" d="M208.82,276.73h0a30.58,30.58,0,0,1,5.15-.22,30.58,30.58,0,0,1,5.15.22A29.57,29.57,0,0,1,214,277a30.58,30.58,0,0,1-5.15-.22h0Z"/><path class="cls-5" d="M208.82,256.13a59.05,59.05,0,0,1,0,10.3A59.05,59.05,0,0,1,208.82,256.13Z"/><path class="cls-5" d="M208.82,235.52a29.56,29.56,0,0,1,.22,5.15,29.52,29.52,0,0,1-.22,5.15,28.58,28.58,0,0,1-.22-5.15A28.62,28.62,0,0,1,208.82,235.52Z"/><path class="cls-5" d="M208.82,214.92a29.56,29.56,0,0,1,.22,5.15,29.52,29.52,0,0,1-.22,5.15,28.58,28.58,0,0,1-.22-5.15A28.62,28.62,0,0,1,208.82,214.92Z"/><path class="cls-5" d="M226.69,212.19a30.58,30.58,0,0,1-5.15.23,30.58,30.58,0,0,1-5.15-.23,29.56,29.56,0,0,1,5.15-.22A29.56,29.56,0,0,1,226.69,212.19Z"/><path class="cls-5" d="M247.29,212.19a30.54,30.54,0,0,1-5.15.23,30.58,30.58,0,0,1-5.15-.23,29.56,29.56,0,0,1,5.15-.22A29.52,29.52,0,0,1,247.29,212.19Z"/><path class="cls-5" d="M267.89,212.19a57.77,57.77,0,0,1-10.3,0,29.56,29.56,0,0,1,5.15-.22A29.52,29.52,0,0,1,267.89,212.19Z"/><path class="cls-5" d="M288.49,212.19a57.77,57.77,0,0,1-10.3,0,60.39,60.39,0,0,1,10.3,0Z"/><path class="cls-5" d="M309.1,212.19a59.05,59.05,0,0,1-10.3,0,60.39,60.39,0,0,1,10.3,0Z"/><path class="cls-5" d="M329.7,212.19a59.05,59.05,0,0,1-10.3,0A61.08,61.08,0,0,1,329.7,212.19Z"/><path class="cls-5" d="M350.3,212.19a59.05,59.05,0,0,1-10.3,0A61.08,61.08,0,0,1,350.3,212.19Z"/><path class="cls-5" d="M370.9,212.19a59.05,59.05,0,0,1-10.3,0A61.08,61.08,0,0,1,370.9,212.19Z"/><path class="cls-5" d="M391.5,212.19a59.05,59.05,0,0,1-10.3,0A61.08,61.08,0,0,1,391.5,212.19Z"/><path class="cls-5" d="M412.1,212.19a59.05,59.05,0,0,1-10.3,0A61.08,61.08,0,0,1,412.1,212.19Z"/><path class="cls-5" d="M432.7,212.19a59.05,59.05,0,0,1-10.3,0A61.08,61.08,0,0,1,432.7,212.19Z"/><path class="cls-5" d="M453.3,212.19a59.05,59.05,0,0,1-10.3,0A61.08,61.08,0,0,1,453.3,212.19Z"/><path class="cls-5" d="M466.32,219.77a30.54,30.54,0,0,1-.23-5.15v-2.43l.2.2a11.71,11.71,0,0,1-2.71-.2,11.7,11.7,0,0,1,2.71-.19h.2v2.63A30.4,30.4,0,0,1,466.32,219.77Z"/><path class="cls-5" d="M466.32,240.37a30.54,30.54,0,0,1-.23-5.15,30.58,30.58,0,0,1,.23-5.15,29.56,29.56,0,0,1,.22,5.15A29.52,29.52,0,0,1,466.32,240.37Z"/><path class="cls-5" d="M466.32,261a59.05,59.05,0,0,1,0-10.3A61.08,61.08,0,0,1,466.32,261Z"/><path class="cls-5" d="M375.84,348.68c0,.13-16.55.23-37,.23s-37-.1-37-.23,16.55-.22,37-.22S375.84,348.56,375.84,348.68Z"/><path class="cls-5" d="M375.84,339.14c0,.12-16.55.22-37,.22s-37-.1-37-.22,16.55-.22,37-.22S375.84,339,375.84,339.14Z"/></g><g id="freepik--Sign--inject-562"><rect class="cls-7" x="144.99" y="265.53" width="4.45" height="119.94"/><circle class="cls-8" cx="147.21" cy="243.95" r="25.85"/><path class="cls-9" d="M170.49,243.62a2.45,2.45,0,0,1,0-.38,6.1,6.1,0,0,0-.08-1.1,4.69,4.69,0,0,0-.05-.81c0-.3-.1-.62-.15-1a16.47,16.47,0,0,0-.49-2.4,21.94,21.94,0,0,0-2.58-6.16,23.18,23.18,0,0,0-30.73-8.52c-.49.26-1,.57-1.45.85a13.21,13.21,0,0,0-1.39,1,27.19,27.19,0,0,0-2.57,2.23,24.18,24.18,0,0,0-2.27,2.68,22.3,22.3,0,0,0-3.29,6.35,24.63,24.63,0,0,0-1.23,7.27,24.91,24.91,0,0,0,1.18,7.27,22.52,22.52,0,0,0,3.3,6.36,27.38,27.38,0,0,0,2.26,2.68,26.37,26.37,0,0,0,2.61,2.22,14.33,14.33,0,0,0,1.39,1c.49.29,1,.59,1.45.86a21.67,21.67,0,0,0,3,1.32,23.11,23.11,0,0,0,27.73-9.84,21.94,21.94,0,0,0,2.58-6.16,16.47,16.47,0,0,0,.49-2.4c.06-.34.12-.67.15-1s0-.57.06-.81c0-.47.06-.84.07-1.11a1.57,1.57,0,0,1,.05-.37,2.29,2.29,0,0,1,0,.37v2c0,.3-.09.62-.13,1a18.11,18.11,0,0,1-.46,2.42,22.11,22.11,0,0,1-2.57,6.24,23.32,23.32,0,0,1-28.09,10.1,23.19,23.19,0,0,1-3.07-1.34c-.49-.26-1-.57-1.46-.85a14.41,14.41,0,0,1-1.44-1,24.9,24.9,0,0,1-2.66-2.25,27.32,27.32,0,0,1-2.31-2.73,22.94,22.94,0,0,1-3.37-6.47,23.37,23.37,0,0,1,0-14.83,22.94,22.94,0,0,1,3.37-6.47,27.21,27.21,0,0,1,2.31-2.72,26.6,26.6,0,0,1,2.66-2.3,12.69,12.69,0,0,1,1.42-1c.49-.29,1-.61,1.46-.85a24.58,24.58,0,0,1,3.07-1.34,23.37,23.37,0,0,1,28.11,10.12,22,22,0,0,1,2.57,6.25,17.82,17.82,0,0,1,.46,2.42c0,.35.1.67.13,1s0,.56,0,.85v1.11A1.71,1.71,0,0,1,170.49,243.62Z"/><rect class="cls-10" x="133.76" y="240.73" width="26.93" height="5.61"/></g><g id="freepik--Crane--inject-562"><rect class="cls-9" x="244.54" y="220.8" width="252.65" height="73.35" transform="translate(-19.41 30.5) rotate(-4.59)"/><path class="cls-7" d="M499.74,283.88c-.09-1.05-2.22-27-6-73.09l.15.12L242.06,231.23h0l.19-.24c2,25.24,4,49.79,5.88,73.11l-.24-.2,180-14.36,71.85-5.66-1.23.12-3.64.31-14.12,1.15-52.69,4.3L247.92,304.35h-.22v-.22c-1.88-23.31-3.85-47.88-5.88-73.11v-.23h.23l251.8-20.16H494v.14C497.62,256.85,499.66,282.83,499.74,283.88Z"/><rect class="cls-8" x="250.92" y="235.61" width="79.72" height="59.92" transform="translate(-17.83 20.95) rotate(-4)"/><path class="cls-5" d="M427.26,283.86a30.87,30.87,0,0,1-5.15.65l-.24-.2h0v-1c0-.32-.05-.64-.07-1,0-.56-.06-1.1-.09-1.64a4.78,4.78,0,0,1,0-1.51,5.38,5.38,0,0,1,.28,1.49c.06.52.12,1.06.19,1.63,0,.31.06.63.08,1l.06.51v.5h0l-.24-.2A30.88,30.88,0,0,1,427.26,283.86Z"/><path class="cls-5" d="M450.59,281.89a40.32,40.32,0,0,1-5.8.72,36.91,36.91,0,0,1-5.85.26,39.26,39.26,0,0,1,5.8-.71A38.14,38.14,0,0,1,450.59,281.89Z"/><path class="cls-5" d="M473.85,279.93a38.94,38.94,0,0,1-5.8.71,38.09,38.09,0,0,1-5.85.27,40.63,40.63,0,0,1,5.81-.72A36.79,36.79,0,0,1,473.85,279.93Z"/><path class="cls-5" d="M490.2,273.38a29.3,29.3,0,0,1,.66,5.11c-.42.49-.12.13-.21.24h-1l-1,.07-1.63.1a5.53,5.53,0,0,1-1.52,0,5.46,5.46,0,0,1,1.49-.29l1.63-.18,1-.1.51,0h.52l-.2.24A29.56,29.56,0,0,1,490.2,273.38Z"/><path class="cls-5" d="M488.57,254.16a50.71,50.71,0,0,1,.86,9.6,26.51,26.51,0,0,1-.62-4.78A26.77,26.77,0,0,1,488.57,254.16Z"/><path class="cls-5" d="M487,235a26.54,26.54,0,0,1,.64,4.78,27.73,27.73,0,0,1,.18,4.82,25.65,25.65,0,0,1-.63-4.79A26.64,26.64,0,0,1,487,235Z"/><path class="cls-5" d="M480.57,220.64a30.87,30.87,0,0,1,5.15-.65l.24.2h0v1c0,.33.05.65.07,1,0,.56.06,1.1.09,1.64a5.46,5.46,0,0,1,0,1.51,5,5,0,0,1-.28-1.49c-.07-.52-.13-1.06-.19-1.63a8.24,8.24,0,0,0-.1-1l0-.51v-.5h0l.25.2A31,31,0,0,1,480.57,220.64Z"/><path class="cls-5" d="M457.29,222.61a39,39,0,0,1,5.8-.72,36.73,36.73,0,0,1,5.84-.26,39.23,39.23,0,0,1-5.81.71A37.83,37.83,0,0,1,457.29,222.61Z"/><path class="cls-5" d="M434,224.57a38.94,38.94,0,0,1,5.8-.71,38.09,38.09,0,0,1,5.85-.27,40.63,40.63,0,0,1-5.81.72A36.79,36.79,0,0,1,434,224.57Z"/><path class="cls-5" d="M417.64,231.12A31.34,31.34,0,0,1,417,226c.41-.49.12-.13.21-.24h.52l.51,0,1-.07,1.64-.09a4.84,4.84,0,0,1,1.52,0,5.38,5.38,0,0,1-1.49.28l-1.63.19-1,.09-.51.05h-.52l.2-.24A28.91,28.91,0,0,1,417.64,231.12Z"/><path class="cls-5" d="M419.26,250.34a27.56,27.56,0,0,1-.63-4.79,25.89,25.89,0,0,1-.18-4.82,51.68,51.68,0,0,1,.81,9.61Z"/><path class="cls-5" d="M420.88,269.55a26.51,26.51,0,0,1-.62-4.78,24.38,24.38,0,0,1-.18-4.83,26.74,26.74,0,0,1,.62,4.79A25.89,25.89,0,0,1,420.88,269.55Z"/><polygon class="cls-8" points="252.89 297.28 277.96 258.25 296.78 280.21 307.53 266.98 332.22 291.64 252.89 297.28"/><path class="cls-8" d="M302.09,252a6.27,6.27,0,1,1-6.7-5.8h0A6.27,6.27,0,0,1,302.09,252Z"/><polygon class="cls-2" points="252.89 297.28 277.96 258.25 296.78 280.21 307.53 266.98 332.22 291.64 252.89 297.28"/><path class="cls-2" d="M302.09,252a6.27,6.27,0,1,1-6.7-5.8h0A6.27,6.27,0,0,1,302.09,252Z"/><path class="cls-7" d="M410.68,242.28c0,.13-15.4,1.65-34.43,3.43s-34.48,3.08-34.49,3,15.45-1.64,34.44-3.44S410.68,242.16,410.68,242.28Z"/><path class="cls-7" d="M412.68,253.75c0,.13-15.58,1.66-34.82,3.43s-34.86,3.12-34.88,3,15.58-1.67,34.84-3.44S412.67,253.63,412.68,253.75Z"/><path class="cls-7" d="M414.68,265.22c0,.12-15.76,1.68-35.2,3.44s-35.19,3.15-35.19,3S360,270,379.48,268.21,414.67,265.08,414.68,265.22Z"/><path class="cls-7" d="M415.09,276.59c0,.13-15.77,1.72-35.24,3.48s-35.28,3.15-35.29,3,15.77-1.71,35.25-3.47S415.08,276.47,415.09,276.59Z"/><rect class="cls-8" x="340.26" y="236.16" width="36.4" height="2.88" transform="translate(-17.86 29.45) rotate(-4.59)"/><path class="cls-5" d="M454.73,261.22c-.12,0-.59-4.22-1.05-9.44s-.72-9.48-.59-9.49.58,4.22,1,9.44A92.77,92.77,0,0,1,454.73,261.22Z"/><path class="cls-5" d="M462.66,251.29c0,.12-4.07.48-9.1.8s-9.12.48-9.12.36c3-.42,6.05-.69,9.09-.81C458.56,251.34,462.65,251.17,462.66,251.29Z"/><path class="cls-17" d="M493.87,210.77s-.21-.06-.61-.22l-1.72-.67-6.76-2.62-25-9.8-83.5-32.91h.18l-10.56,5.25-87.56,43.37-26.54,13.09-7.21,3.54-1.89.91-.64.3.62-.34,1.87-.95,7.19-3.61,26.49-13.23,87.49-43.49,10.56-5.25h.18l83.45,33,24.9,9.92,6.73,2.71,1.71.71Z"/><path class="cls-6" d="M442.59,90.83a5.74,5.74,0,0,0-10.43-.07l-9,.74,9.07,17.88,5.68-10.46a5.42,5.42,0,0,0,1.8-.49,5.74,5.74,0,0,0,2.85-7.6Z"/><path class="cls-6" d="M390.81,64.94l5.86-2.5-14.12-3.55a5.74,5.74,0,1,0-1.74,7.93c.14-.09.28-.18.41-.28l13.4,8.2Z"/><path class="cls-17" d="M503.81,240.44v-.12L406.91,59.69l-.55-1-15.26,7,73.07,192.58,0,.12,43.52,69.18.86-.13,1-.15.79-.12-9-14.31,5.26-13.55,13.93,5.15,6.14,20.3.73-.1.93-.14.86-.12Zm6.27,29.26-17.4-4.46,10.09-19.7Zm-18.93-4.85-21.39-5.5L501.33,245Zm8.08-27.78L477,230.92l9.12-18.29Zm-23.75-6.56-19.56-5.41L484.72,212Zm7.93-22.94-20.48-7.14,7.3-17.43Zm-21.94-7.65-18-6.28L468.93,182Zm5.86-22.32-18.64-8,5.52-16.41Zm-20.06-8.66-16-6.87,21.59-9.83Zm4.29-20.78-.1.05-16.77-9.06,3.73-15.5ZM435,117.35l-14.59-9.82,1.93-13.84Zm-16-10.78-11.75-7.9L421,92.42ZM406.52,64.22l12.41,23.17L406.17,76.64Zm-2.37,28.87-9-23.72,9.44,8Zm.51-17.76-10.14-8.54L405,62Zm1.45,3.26,12.28,10.3L405.65,94.7Zm.8,21.75,11.83,8-2.38,17Zm13.26,8.91,14.22,9.55-16.62,7.57Zm17,13-3.88,16.14-14.43-7.82Zm-18,10.25,13.79,7.45-4.25,17.68Zm15.2,8.21L449.68,149l-19.53,8.88Zm-3.44,22.85,15.89,6.87L440.52,189ZM448.19,171,466,178.73l-24.1,11Zm-5.36,24,18,6.29-8.21,19.59Zm19.49,6.8,19.51,6.8L454.2,221.21Zm-7.6,24.54,20.07,5.55-10.2,20.46Zm21.62,6,21.81,6-32.1,14.59Zm-7.72,28.33,21.87,5.61-8.23,16.07Zm23.4,6,17.8,4.57-26.37,12Zm8.4,44.55-11.68-18.57,16.51,6.12Zm5.39-13.89-18.42-6.87-.46-.71L512.69,278l.26.86Zm1.45.53,6.35-16.47L520,302.62Z"/><path class="cls-17" d="M376.21,145.15v-6c0-3.92,0-9.69,0-17.08,0-14.79,0-36-.08-62.06v-.16h.17L403.38,57h.09l.07.08,70.78,79.1,103,115.3,31.21,35L617,296l2.19,2.48c.49.55.74.85.74.85s-.26-.27-.77-.85-1.25-1.38-2.22-2.46c-2-2.16-4.83-5.36-8.53-9.44l-31.28-34.89L474,136.45l-70.73-79.1.16.07-27.19,2.82.15-.18c0,26-.05,47.27-.07,62.06v21.55A7.73,7.73,0,0,1,376.21,145.15Z"/><rect class="cls-17" x="373.76" y="120.91" width="4.34" height="9.31" rx="0.33"/><path class="cls-17" d="M383.3,131.66H369a1.59,1.59,0,0,1-1.58-1.59h0a1.59,1.59,0,0,1,1.58-1.59h14.27a1.59,1.59,0,0,1,1.59,1.59h0a1.59,1.59,0,0,1-1.59,1.59Z"/><path class="cls-17" d="M377.21,157.17l0-2-2.11.92a12.19,12.19,0,0,0,0,2.26,1.05,1.05,0,0,0,.08.35,1,1,0,0,0,.52.36,4.13,4.13,0,0,1,2.15,1.88,2.48,2.48,0,0,1-1.14,3.32,2.36,2.36,0,0,1-.28.12,2.58,2.58,0,0,1-3.21-1.72c0-.35,0-.86-.48-.86-.69-.07-1,.95-1,1.48a4.4,4.4,0,0,0,4.24,4.1,4.47,4.47,0,0,0,2.41-.51,4.67,4.67,0,0,0,2.25-3.19C381.28,159.6,377,157.43,377.21,157.17Z"/><path class="cls-5" d="M379,156.16l9.12-21.93a3,3,0,0,0-1.64-3.94,3,3,0,0,0-1.14-.23H367.11a3,3,0,0,0-3,3,3.13,3.13,0,0,0,.23,1.17l9.11,21.93a3,3,0,0,0,5.56,0Z"/><path class="cls-8" d="M368,131.62,365.68,134a.63.63,0,0,0,0,.27l.78,1.85,4.47-4.47Z"/><polygon class="cls-8" points="376.84 131.62 373.9 131.62 367.35 138.17 368.22 140.24 376.84 131.62"/><polygon class="cls-8" points="383.11 142.95 385.18 137.94 372.52 150.6 373.38 152.66 383.11 142.95"/><path class="cls-8" d="M381.06,148l-6.77,6.77.22.55a1.85,1.85,0,0,0,1.11,1.06L379,153Z"/><polygon class="cls-8" points="382.7 131.62 379.77 131.62 369.08 142.31 369.94 144.38 382.7 131.62"/><path class="cls-8" d="M386.86,133.33a1.77,1.77,0,0,0-1.35-1.58l-14.75,14.7.86,2.08Z"/><path class="cls-6" d="M610.91,294.55h15.31a2.27,2.27,0,0,1,2.27,2.27h0v7H608.64v-7a2.27,2.27,0,0,1,2.25-2.29Z"/><path class="cls-8" d="M654.15,305a7.11,7.11,0,0,0-5.32-4.3l-81.37,0V287.17a3.29,3.29,0,0,0-3.29-3.29H524.84a3.29,3.29,0,0,0-3.13,2.29l-1.18,3.72h4.38a3.43,3.43,0,0,1,2.62,1.22,3.22,3.22,0,0,1,.69,2.75l-4.2,20a3.43,3.43,0,0,1-3.33,2.63h-8.35a13.46,13.46,0,0,0,.22,3.8l.47,2-21.53,4.24a.88.88,0,0,0-.7.68l-2,5.44a3.12,3.12,0,0,0-.29.79h0c-.43,1.79-.11,4.79,1,4.79h23.06l-1,1.17-1.3,4.05H656.75C656.78,330.31,656.44,310.57,654.15,305ZM552.59,292.65l-2.16,19.64a4.55,4.55,0,0,1-.11.74,8.64,8.64,0,0,1-8.59,6.74h-9.66a3,3,0,0,1-3-3,2.56,2.56,0,0,1,.07-.62l4.55-23.57a3.31,3.31,0,0,1,3.23-2.65h13.22a2.49,2.49,0,0,1,2.48,2.49,2.44,2.44,0,0,1,0,.27Z"/><path class="cls-4" d="M588.63,353.18l-62.37.86c-.4,0-1.12-1.2-1.12-1.61v-7a.74.74,0,0,1,.74-.73h62.75a.73.73,0,0,1,.73.72h0v7a.72.72,0,0,1-.71.75Z"/><path class="cls-3" d="M552.59,292.65l-2.16,19.64a4.72,4.72,0,0,1-.11.74,8.58,8.58,0,0,1-8.59,6.73h-9.65a3,3,0,0,1-3-3,3.18,3.18,0,0,1,.06-.62l4.55-23.57a3.32,3.32,0,0,1,3.24-2.64h13.2a2.48,2.48,0,0,1,2.48,2.5c0,.08,0,.17,0,.26Z"/><g class="cls-18"><path class="cls-3" d="M656.8,345.11a3.36,3.36,0,0,0-.2-1.57H510.41a3.5,3.5,0,0,0-.21,1.57Z"/><path class="cls-3" d="M521.71,286.16l-8.8,27.34a13.11,13.11,0,0,0-.35,6.75l3.77,17.48h51.13V287.17a3.29,3.29,0,0,0-3.3-3.29H524.84A3.29,3.29,0,0,0,521.71,286.16Z"/></g><path class="cls-4" d="M532.08,319.71a3,3,0,0,1-3-3,3.18,3.18,0,0,1,.06-.62l4.55-23.57a3.33,3.33,0,0,1,3.24-2.65h13.2a2.49,2.49,0,0,1,1.85.86,2.53,2.53,0,0,1,.62,1.93l-2.2,19.61a4.55,4.55,0,0,1-.11.74,8.64,8.64,0,0,1-8.59,6.74Z"/><path class="cls-4" d="M512.34,316.49a12,12,0,0,1,.59-2.83l7.63-23.72h4.37a3.4,3.4,0,0,1,2.63,1.21,3.26,3.26,0,0,1,.7,2.75l-4.22,20a3.42,3.42,0,0,1-3.31,2.64Z"/><path class="cls-7" d="M656.87,347.28H510.39c-1.11,0-1.11-4,0-4H656.87C658,343.23,658,347.28,656.87,347.28Z"/><path class="cls-7" d="M567.59,301.76v.86c0,.6,0,1.41-.05,2.44-.07,2.16-.17,5.21-.28,9s-.29,8.31-.46,13.31c0,1.25-.1,2.57-.15,3.84a9,9,0,0,1-.86,4,5.45,5.45,0,0,1-3.37,2.58,14.79,14.79,0,0,1-4.29.51l-29.63-.55-9-.23-2.43-.08h-.85a.37.37,0,0,1,.21,0h3.07l9,.08,29.62.42a14.34,14.34,0,0,0,4.17-.48,5,5,0,0,0,3.11-2.31,8.49,8.49,0,0,0,.86-3.8c.06-1.3.11-2.57.17-3.84.2-5,.39-9.51.55-13.3s.32-6.82.43-9c.05-1,.1-1.85.12-2.44a1.85,1.85,0,0,1,.06-.62A.59.59,0,0,1,567.59,301.76Z"/><path class="cls-7" d="M525.84,337.94c-.12,0-.22-4.3-.22-9.59s.1-9.6.22-9.6.23,4.29.23,9.6S526,337.94,525.84,337.94Z"/><path class="cls-7" d="M533.51,284a10.6,10.6,0,0,1-.16,1.38c-.13.86-.35,2.17-.63,3.75-.56,3.16-1.41,7.51-2.47,12.29s-2.17,9.08-3,12.17c-.42,1.55-.77,2.8-1,3.65a6.91,6.91,0,0,1-.44,1.33,9,9,0,0,1,.28-1.37c.23-.94.53-2.19.9-3.69.76-3.12,1.8-7.42,2.87-12.19s2-9.11,2.57-12.25l.77-3.71A6.34,6.34,0,0,1,533.51,284Z"/><path class="cls-7" d="M550.46,327.52a2.94,2.94,0,0,0,.8-.33,1.49,1.49,0,0,0,.55-.8,1.74,1.74,0,0,0-.15-1.23,1.37,1.37,0,0,0-1.28-.67H544a1.32,1.32,0,0,0-1.3,1.22,1.35,1.35,0,0,0,.85,1.49,1.31,1.31,0,0,0,.43.08h3.15c1,0,1.88,0,2.46.06a3.4,3.4,0,0,1,.9.09,3.4,3.4,0,0,1-.9.09c-.58,0-1.42.05-2.46.06H544a1.61,1.61,0,0,1-.57-.08,1.79,1.79,0,0,1-1.17-1.92A1.71,1.71,0,0,1,544,324h6.4a1.68,1.68,0,0,1,1.54.85,1.78,1.78,0,0,1,.21.78,1.65,1.65,0,0,1-.09.7,1.63,1.63,0,0,1-.69.86,1.39,1.39,0,0,1-.65.21C550.54,327.55,550.46,327.52,550.46,327.52Z"/><path class="cls-7" d="M647.24,306.45c0,.13-6,.22-13.38.22s-13.37-.09-13.37-.22,6-.22,13.37-.22S647.24,306.33,647.24,306.45Z"/><path class="cls-7" d="M647.24,309.11c0,.13-6,.23-13.38.23s-13.37-.1-13.37-.23,6-.22,13.37-.22S647.24,309,647.24,309.11Z"/><path class="cls-7" d="M647.24,311.78c0,.12-6,.23-13.38.23s-13.37-.11-13.37-.23,6-.22,13.37-.22S647.24,311.65,647.24,311.78Z"/><path class="cls-7" d="M647.24,314.44c0,.12-6,.23-13.38.23s-13.37-.11-13.37-.23,6-.22,13.37-.22S647.24,314.31,647.24,314.44Z"/><path class="cls-7" d="M647.24,317.1c0,.12-6,.23-13.38.23s-13.37-.11-13.37-.23,6-.22,13.37-.22S647.24,317,647.24,317.1Z"/><path class="cls-7" d="M647.24,319.76c0,.13-6,.23-13.38.23s-13.37-.1-13.37-.23,6-.22,13.37-.22S647.24,319.64,647.24,319.76Z"/><path class="cls-7" d="M647.24,322.43c0,.12-6,.22-13.38.22s-13.37-.1-13.37-.22,6-.23,13.37-.23S647.24,322.3,647.24,322.43Z"/><path class="cls-17" d="M490.1,385.65c-8.31,0-15.31-7.73-15.31-15.78s7.32-14.8,15.63-14.8l133.93-5.87a18.13,18.13,0,0,1,16.8,9.05,16.62,16.62,0,0,1,1.49,12c-3.55,15.62-17,15.45-22.23,15.1S490.1,385.65,490.1,385.65Z"/><circle class="cls-6" cx="495.4" cy="369.77" r="12.08"/><circle class="cls-6" cx="624.19" cy="367.32" r="15.62"/><path class="cls-4" d="M625.93,352.19l-.33.06-1,.11-3.8.38c-3.3.32-8.07.75-14,1.23-11.81,1-28.15,2.1-46.22,2.89s-34.46,1.12-46.35,1.19H500.2l-3.81-.05h3.81l14.05-.14c11.84-.15,28.22-.52,46.29-1.31s34.41-1.87,46.22-2.77l14-1.09,3.81-.3,1-.06A1.66,1.66,0,0,1,625.93,352.19Z"/><path class="cls-4" d="M621,381.46c0,.13-28.11.23-62.79.23s-62.79-.1-62.79-.23,28.1-.22,62.79-.22S621,381.34,621,381.46Z"/><path class="cls-7" d="M516.93,337.52a29.15,29.15,0,0,1-.85-3c-.53-1.88-1.29-4.47-2.06-7.37a60.05,60.05,0,0,1-1.62-7.48,18.1,18.1,0,0,1-.14-2.33,3.13,3.13,0,0,1,.12-.86c.06,0,0,1.21.33,3.13s1,4.55,1.72,7.42,1.49,5.49,1.94,7.4c.22.95.39,1.72.48,2.27A2.76,2.76,0,0,1,516.93,337.52Z"/><path class="cls-10" d="M615.59,377a3.92,3.92,0,0,1-.9-.6,10.36,10.36,0,0,1-2-2.12,11.94,11.94,0,0,1-1.88-3.92,11.34,11.34,0,0,1,2-10.16,12.44,12.44,0,0,1,3.21-2.93,10.9,10.9,0,0,1,2.67-1.21,4.16,4.16,0,0,1,1.05-.21,17.58,17.58,0,0,0-3.55,1.71,13,13,0,0,0-3,2.91,11.24,11.24,0,0,0-1.91,9.81,12.3,12.3,0,0,0,1.72,3.84A16.62,16.62,0,0,0,615.59,377Z"/><path class="cls-9" d="M547.72,303.57a83.45,83.45,0,0,1-6.71,5.15,77.16,77.16,0,0,1-7,4.76,83.45,83.45,0,0,1,6.71-5.15A80.09,80.09,0,0,1,547.72,303.57Z"/><path class="cls-9" d="M548.75,299.92a59.07,59.07,0,0,1-5.84,4.36,59.73,59.73,0,0,1-6.1,4,117.47,117.47,0,0,1,11.94-8.35Z"/><path class="cls-9" d="M523.55,305.55a15.56,15.56,0,0,1-3,2.34,16.13,16.13,0,0,1-3.23,2,17.19,17.19,0,0,1,3-2.34A16.06,16.06,0,0,1,523.55,305.55Z"/><path class="cls-9" d="M525.31,302.13a44.48,44.48,0,0,1-7,5.47A44.48,44.48,0,0,1,525.31,302.13Z"/><path class="cls-7" d="M552.26,323a51.21,51.21,0,0,1-9.59,0A51.21,51.21,0,0,1,552.26,323Z"/><path class="cls-10" d="M493,380a3.39,3.39,0,0,1-1-.22,10.2,10.2,0,0,1-2.65-1.3,11.29,11.29,0,0,1-3-3.12,10.28,10.28,0,0,1-.73-10.3,11.18,11.18,0,0,1,2.57-3.52,10.12,10.12,0,0,1,2.44-1.66,4.45,4.45,0,0,1,1-.37,15.31,15.31,0,0,0-3.22,2.26,11.3,11.3,0,0,0-2.42,3.43,10.13,10.13,0,0,0,.69,9.92,11.34,11.34,0,0,0,2.89,3.09A15.09,15.09,0,0,0,493,380Z"/><path class="cls-9" d="M511.31,332.37c0,.12-4.65.23-10.39.23s-10.41-.11-10.41-.23,4.66-.22,10.41-.22S511.31,332.25,511.31,332.37Z"/><path class="cls-8" d="M417.56,78l-7.83-16.82a10.39,10.39,0,0,0-13.8-5h0a10.39,10.39,0,0,0-5,13.8h0l7.84,16.8a.62.62,0,0,0,.82.33l0,0,17.69-8.24A.63.63,0,0,0,417.56,78Z"/></g><g id="freepik--Fence--inject-562"><rect class="cls-8" x="113.04" y="304.21" width="4.41" height="81.11"/><path class="cls-8" d="M119.71,301.43a4.45,4.45,0,1,1-4.44-4.45h0A4.44,4.44,0,0,1,119.71,301.43Z"/><rect class="cls-8" x="200.72" y="304.21" width="4.41" height="81.11"/><path class="cls-8" d="M207.39,301.43a4.45,4.45,0,1,1-4.45-4.45h0A4.45,4.45,0,0,1,207.39,301.43Z"/><rect class="cls-8" x="100.45" y="312.04" width="113.04" height="20.22"/><polygon class="cls-19" points="113.24 312.03 113.04 312.37 101.43 332.26 100.45 332.26 100.45 312.03 113.24 312.03"/><polygon class="cls-19" points="141.82 312.03 129.99 332.26 114.55 332.26 119.24 324.23 126.36 312.03 141.82 312.03"/><polygon class="cls-19" points="170.37 312.03 158.55 332.26 143.1 332.26 154.92 312.03 170.37 312.03"/><polygon class="cls-19" points="198.92 312.04 187.1 332.26 171.66 332.26 183.48 312.04 198.92 312.04"/><polygon class="cls-19" points="213.49 312.04 213.49 332.26 200.22 332.26 212.05 312.04 213.49 312.04"/><rect class="cls-8" x="100.45" y="343.28" width="113.04" height="20.22"/><polygon class="cls-19" points="113.24 343.28 113.04 343.62 101.43 363.51 100.45 363.51 100.45 343.28 113.24 343.28"/><polygon class="cls-19" points="141.82 343.28 129.99 363.51 114.55 363.51 119.24 355.47 126.36 343.28 141.82 343.28"/><polygon class="cls-19" points="170.37 343.28 158.55 363.51 143.1 363.51 154.92 343.28 170.37 343.28"/><polygon class="cls-19" points="198.92 343.28 187.1 363.51 171.66 363.51 183.48 343.28 198.92 343.28"/><polygon class="cls-19" points="213.49 343.28 213.49 363.51 200.22 363.51 212.05 343.28 213.49 343.28"/><path class="cls-7" d="M213.49,332.26V327c0-3.44,0-8.48-.07-14.93l.12.11-113.08.14h0l.22-.22v20.22l-.22-.22,80.47.09,23.86.07h.11l-23.81.06-80.63.09h-.22V311.81h.23l113,.11h.11V312c0,6.47-.05,11.54-.06,15v4.9A.58.58,0,0,1,213.49,332.26Z"/><path class="cls-7" d="M213.49,363.51v-5.3c0-3.43,0-8.48-.07-14.93l.12.12-113,.1h0l.22-.22v20.23l-.22-.23,80.47.1,23.87.07h.1l-23.81.07-80.63.09h-.22V343.05h.23l113,.11h.11v.12c0,6.48,0,11.54-.06,15v4.9A.43.43,0,0,1,213.49,363.51Z"/></g><g id="freepik--Floor--inject-562"><path class="cls-7" d="M651.26,385.65c0,.12-124.82.22-278.76.22s-278.8-.1-278.8-.22,124.79-.23,278.8-.23S651.26,385.52,651.26,385.65Z"/></g></svg>