<svg xmlns="http://www.w3.org/2000/svg" xmlns:xlink="http://www.w3.org/1999/xlink" viewBox="0 0 1080 1080"><defs><style>.cls-1,.cls-13,.cls-16,.cls-17,.cls-19,.cls-25,.cls-28,.cls-30,.cls-6,.cls-7{fill:none;}.cls-2{isolation:isolate;}.cls-26,.cls-3,.cls-31{fill:#fddbdb;}.cls-14,.cls-4{fill:#fab6b6;}.cls-29,.cls-5{fill:#fff;}.cls-13,.cls-29,.cls-30,.cls-31,.cls-6{stroke:#fddbdb;}.cls-10,.cls-13,.cls-16,.cls-17,.cls-19,.cls-25,.cls-29,.cls-30,.cls-6,.cls-7{stroke-linecap:round;}.cls-10,.cls-16,.cls-17,.cls-25,.cls-29,.cls-30,.cls-6,.cls-7{stroke-linejoin:round;}.cls-10,.cls-16,.cls-17,.cls-19,.cls-28,.cls-29,.cls-6,.cls-7{stroke-width:4px;}.cls-10,.cls-19,.cls-28,.cls-7{stroke:#fff;}.cls-10,.cls-8{fill:#e00;}.cls-9{clip-path:url(#clip-path);}.cls-11{clip-path:url(#clip-path-3);}.cls-12{clip-path:url(#clip-path-4);}.cls-13,.cls-19,.cls-28,.cls-31{stroke-miterlimit:10;}.cls-13{stroke-width:3.65px;}.cls-14,.cls-26{mix-blend-mode:multiply;}.cls-15{clip-path:url(#clip-path-6);}.cls-16,.cls-25{stroke:#e00;}.cls-17{stroke:#fab6b6;}.cls-18{clip-path:url(#clip-path-7);}.cls-20{clip-path:url(#clip-path-8);}.cls-21{clip-path:url(#clip-path-9);}.cls-22{clip-path:url(#clip-path-11);}.cls-23{clip-path:url(#clip-path-12);}.cls-24{clip-path:url(#clip-path-13);}.cls-25,.cls-30{stroke-width:12px;}.cls-27{clip-path:url(#clip-path-16);}</style><clipPath id="clip-path"><polygon class="cls-1" points="717.98 289.78 717.98 336.59 677.44 360 636.9 336.59 636.9 289.78 677.44 266.38 717.98 289.78"/></clipPath><clipPath id="clip-path-3"><circle class="cls-1" cx="219.11" cy="836.18" r="67.17"/></clipPath><clipPath id="clip-path-4"><circle class="cls-1" cx="295.71" cy="755.54" r="143.46"/></clipPath><clipPath id="clip-path-6"><rect class="cls-1" x="307.4" y="375.91" width="455.78" height="376.43"/></clipPath><clipPath id="clip-path-7"><circle class="cls-1" cx="232.11" cy="788.5" r="33.5"/></clipPath><clipPath id="clip-path-8"><circle class="cls-1" cx="117.18" cy="801" r="20"/></clipPath><clipPath id="clip-path-9"><polygon class="cls-1" points="821.98 506.78 821.98 553.59 781.44 577 740.9 553.59 740.9 506.78 781.44 483.38 821.98 506.78"/></clipPath><clipPath id="clip-path-11"><circle class="cls-1" cx="170.75" cy="658.27" r="52.27"/></clipPath><clipPath id="clip-path-12"><polygon class="cls-1" points="842.71 440.49 842.71 463.89 822.44 475.59 802.17 463.89 802.17 440.49 822.44 428.78 842.71 440.49"/></clipPath><clipPath id="clip-path-13"><polygon class="cls-1" points="902.98 620.78 902.98 667.59 862.44 691 821.9 667.59 821.9 620.78 862.44 597.38 902.98 620.78"/></clipPath><clipPath id="clip-path-16"><circle class="cls-1" cx="426.63" cy="735.83" r="55.17"/></clipPath></defs><g class="cls-2"><g id="Art"><path class="cls-3" d="M502.18,124c175,0,158,119.81,261,185.4s236,134.6,218,311.6-206,335-404,335-452-157-452-401S327.18,124,502.18,124Z"/><rect class="cls-4" x="289.18" y="390.49" width="455.78" height="376.43"/><circle class="cls-5" cx="892.8" cy="403.1" r="53.03"/><circle class="cls-5" cx="662.04" cy="302.57" r="153.57"/><circle class="cls-5" cx="821.3" cy="357" r="75.13"/><circle class="cls-5" cx="520.43" cy="381.07" r="75.07"/><path class="cls-6" d="M662,179A123.7,123.7,0,0,1,785.6,302.57"/><polygon class="cls-5" points="518.76 456.14 893.69 456.14 893.69 375.85 517.17 375.85 518.76 456.14"/><path class="cls-6" d="M945.84,403.1a53,53,0,0,0-49.73-52.92,75.13,75.13,0,0,0-74.81-68.31c-2.37,0-4.72.13-7,.34a153.57,153.57,0,0,0-305.79,20.36q0,2.19.06,4.38A75.06,75.06,0,0,0,518.76,456.1v0H893.69v0A53,53,0,0,0,945.84,403.1Z"/><polygon class="cls-4" points="798.98 553.78 798.98 600.59 758.44 624 717.9 600.59 717.9 553.78 758.44 530.38 798.98 553.78"/><polygon class="cls-4" points="877.98 665.78 877.98 712.59 837.44 736 796.9 712.59 796.9 665.78 837.44 642.38 877.98 665.78"/><polygon class="cls-4" points="837.71 455.49 837.71 478.89 817.44 490.59 797.17 478.89 797.17 455.49 817.44 443.78 837.71 455.49"/><polygon class="cls-4" points="697.98 329.78 697.98 376.59 657.44 400 616.9 376.59 616.9 329.78 657.44 306.38 697.98 329.78"/><line class="cls-7" x1="677.47" y1="313.21" x2="677.47" y2="339.07"/><line class="cls-7" x1="677.47" y1="313.21" x2="677.47" y2="354.65"/><polygon class="cls-8" points="717.98 289.78 717.98 336.59 677.44 360 636.9 336.59 636.9 289.78 677.44 266.38 717.98 289.78"/><g class="cls-9"><line class="cls-10" x1="636.9" y1="289.78" x2="677.47" y2="313.21"/><line class="cls-7" x1="677.47" y1="313.21" x2="677.47" y2="367.52"/><line class="cls-10" x1="717.98" y1="289.78" x2="677.47" y2="313.21"/></g><g class="cls-9"><path d="M644.61,253.1c-2.43,2.61-3.53,7.84-4.58,11.11-2.22,6.87-4,14.11-4.13,21.36-.12,10,6.38,19.42,12.73,26.74,6.1,7,14.09,12.23,19.69,19.72a36.73,36.73,0,0,1,2.74,4.26c4.89,9,6.31,19.59,5.38,29.71-.05.49-.12,3.52-.94,3.55l-55,1.91-4.19-117.23S645.6,252,644.61,253.1Z"/></g><circle class="cls-4" cx="219.11" cy="836.18" r="67.17"/><g class="cls-11"><ellipse class="cls-3" cx="173.73" cy="883.33" rx="43.18" ry="61.43" transform="translate(-617.41 453.74) rotate(-50.37)"/></g><g class="cls-12"><circle class="cls-4" cx="295.71" cy="755.54" r="143.46"/><g class="cls-12"><circle class="cls-5" cx="328.07" cy="721.7" r="165.12"/></g><path class="cls-13" d="M295.71,639.14a116.4,116.4,0,0,1,116.4,116.4"/><path class="cls-4" d="M248.39,823.92c-8.29,14.37-31.32,33.19-45.69,24.89s-14.65-40.57-6.35-54.94a30,30,0,1,1,52,30Z"/><path class="cls-14" d="M181.16,727.94c-19.85,6.47-57.22,4.71-63.69-15.14s20.41-50.29,40.27-56.76a37.81,37.81,0,0,1,23.42,71.9Z"/><path class="cls-4" d="M450.81,770.74C440,797,411.73,841.92,377.1,826.25c-25.89-11.71-32.26-68.23-21.49-94.52a51.44,51.44,0,0,1,95.2,39Z"/><path class="cls-4" d="M260.22,598.82h190.5V814c-36.91-51-100.28-51.61-157.51-52.83C293.21,704,299.2,645.73,260.22,598.82Z"/><path class="cls-4" d="M406.75,882a44,44,0,0,1-44,44c-24.29,0-89.52-35.78-65.6-40,17-3,22.67-17.28,27-24,8-12.51,22.8-23.94,38.6-23.94A44,44,0,0,1,406.75,882Z"/></g><g class="cls-15"><rect class="cls-5" x="309.4" y="377.91" width="451.78" height="372.43"/><path class="cls-8" d="M759.18,379.91V748.34H311.4V379.91H759.18m4-4H307.4V752.34H763.18V375.91Z"/><rect class="cls-8" x="307.4" y="375.91" width="455.78" height="63.12"/><line class="cls-7" x1="339.03" y1="407.32" x2="503.19" y2="407.32"/><circle class="cls-5" cx="686.37" cy="407.32" r="9.23"/><circle class="cls-5" cx="722.87" cy="407.32" r="9.23"/><rect class="cls-5" x="346.33" y="470.12" width="383.38" height="243.59"/><line class="cls-16" x1="541" y1="581" x2="642" y2="581"/><line class="cls-16" x1="436.53" y1="581" x2="511.07" y2="581"/><line class="cls-17" x1="657.06" y1="536" x2="730" y2="536"/><line class="cls-17" x1="705" y1="561" x2="738" y2="561"/><line class="cls-16" x1="397.69" y1="536" x2="595" y2="536"/><line class="cls-17" x1="698" y1="511" x2="730" y2="511"/><line class="cls-16" x1="471.61" y1="626" x2="593" y2="626"/><line class="cls-16" x1="453.91" y1="491" x2="579.83" y2="491"/><line class="cls-16" x1="359" y1="491" x2="424.18" y2="491"/><line class="cls-16" x1="528" y1="671" x2="677" y2="671"/></g><circle class="cls-3" cx="371.78" cy="881.03" r="43.97"/><circle cx="232.11" cy="788.5" r="33.5"/><g class="cls-18"><circle class="cls-8" cx="237.11" cy="783.5" r="33.5"/></g><path class="cls-19" d="M232.11,764.85a23.67,23.67,0,0,1,23.64,23.65"/><g class="cls-20"><circle class="cls-3" cx="117.18" cy="801" r="20"/></g><circle cx="170.75" cy="658.27" r="52.27"/><path class="cls-5" d="M518.6,800.26a51.43,51.43,0,1,1-51.42,51.43,51.48,51.48,0,0,1,51.42-51.43m0-4A55.43,55.43,0,1,0,574,851.69a55.49,55.49,0,0,0-55.42-55.43Z"/><circle class="cls-5" cx="518.6" cy="851.69" r="26.68"/><circle class="cls-5" cx="540.86" cy="801.95" r="9.95"/><circle class="cls-5" cx="475.02" cy="883.42" r="9.95"/><circle class="cls-5" cx="554.6" cy="891.95" r="9.95"/><line class="cls-7" x1="781.47" y1="530.21" x2="781.47" y2="556.07"/><line class="cls-7" x1="781.47" y1="530.21" x2="781.47" y2="571.65"/><polygon class="cls-8" points="821.98 506.78 821.98 553.59 781.44 577 740.9 553.59 740.9 506.78 781.44 483.38 821.98 506.78"/><g class="cls-21"><line class="cls-10" x1="740.9" y1="506.78" x2="781.47" y2="530.21"/><line class="cls-7" x1="781.47" y1="530.21" x2="781.47" y2="584.52"/><line class="cls-10" x1="821.98" y1="506.78" x2="781.47" y2="530.21"/></g><g class="cls-21"><path d="M748.61,470.1c-2.43,2.61-3.53,7.84-4.58,11.11-2.22,6.87-4,14.11-4.13,21.36-.12,10,6.38,19.42,12.73,26.74,6.1,7,14.09,12.23,19.69,19.72a36.73,36.73,0,0,1,2.74,4.26c4.89,9,6.31,19.59,5.38,29.71-.05.49-.12,3.52-.94,3.55l-55,1.91-4.19-117.23S749.6,469,748.61,470.1Z"/></g><g class="cls-22"><circle class="cls-8" cx="177.75" cy="651.27" r="52.27"/></g><line class="cls-7" x1="862.46" y1="236.2" x2="862.46" y2="249.13"/><line class="cls-7" x1="862.46" y1="236.2" x2="862.46" y2="256.92"/><polygon class="cls-3" points="882.71 224.49 882.71 247.89 862.44 259.59 842.17 247.89 842.17 224.49 862.44 212.78 882.71 224.49"/><line class="cls-7" x1="822.46" y1="452.2" x2="822.46" y2="465.13"/><line class="cls-7" x1="822.46" y1="452.2" x2="822.46" y2="472.92"/><polygon class="cls-8" points="842.71 440.49 842.71 463.89 822.44 475.59 802.17 463.89 802.17 440.49 822.44 428.78 842.71 440.49"/><g class="cls-23"><path d="M806,422.14c-1.22,1.31-1.77,3.92-2.3,5.56a37.09,37.09,0,0,0-2.06,10.68c-.06,5,3.19,9.71,6.37,13.37,3.05,3.51,7,6.11,9.84,9.86a18.36,18.36,0,0,1,1.37,2.13,26.13,26.13,0,0,1,2.69,14.86c0,.24-.06,1.75-.47,1.77l-27.48.95-2.1-58.61S806.52,421.61,806,422.14Z"/></g><line class="cls-7" x1="862.47" y1="644.21" x2="862.47" y2="670.07"/><line class="cls-7" x1="862.47" y1="644.21" x2="862.47" y2="685.65"/><polygon class="cls-8" points="902.98 620.78 902.98 667.59 862.44 691 821.9 667.59 821.9 620.78 862.44 597.38 902.98 620.78"/><g class="cls-24"><line class="cls-10" x1="821.9" y1="620.78" x2="862.47" y2="644.21"/><line class="cls-7" x1="862.47" y1="644.21" x2="862.47" y2="698.52"/><line class="cls-10" x1="902.98" y1="620.78" x2="862.47" y2="644.21"/></g><g class="cls-24"><path d="M829.61,584.1c-2.43,2.61-3.53,7.84-4.58,11.11-2.22,6.87-4,14.11-4.13,21.36-.12,10,6.38,19.42,12.73,26.74,6.1,7,14.09,12.23,19.69,19.72a36.73,36.73,0,0,1,2.74,4.26c4.89,9,6.31,19.59,5.38,29.71-.05.49-.12,3.52-.94,3.55l-55,1.91-4.19-117.23S830.6,583,829.61,584.1Z"/></g><line class="cls-7" x1="781.47" y1="530.21" x2="781.47" y2="556.07"/><line class="cls-7" x1="781.47" y1="530.21" x2="781.47" y2="571.65"/><line class="cls-7" x1="862.47" y1="644.21" x2="862.47" y2="670.07"/><line class="cls-7" x1="862.47" y1="644.21" x2="862.47" y2="685.65"/><rect class="cls-5" x="208" y="640" width="37" height="31"/><path class="cls-25" d="M233,640H220a15,15,0,0,0-15,15h0a15,15,0,0,0,15,15h43"/><path class="cls-19" d="M170.75,621.37a36.9,36.9,0,0,1,30.58,16.28"/><rect class="cls-5" x="367" y="694" width="60" height="26"/><g class="cls-15"><path class="cls-26" d="M476.56,774.69C463.49,806.57,429.18,861,387.18,842c-31.39-14.2-39.12-82.74-26.06-114.62a62.38,62.38,0,1,1,115.44,47.31Z"/></g><circle class="cls-8" cx="426.63" cy="735.83" r="55.17"/><circle cx="426.63" cy="735.83" r="55.17"/><g class="cls-27"><circle class="cls-8" cx="434.63" cy="727.83" r="55.17"/></g><path class="cls-19" d="M426.63,700.36a35.51,35.51,0,0,1,35.47,35.47"/><line class="cls-25" x1="303" y1="670" x2="348" y2="670"/><path class="cls-28" d="M371.78,835.06c24.28,0,46,21.68,46,46s-21.69,46-46,46"/><line class="cls-25" x1="473.65" y1="718.11" x2="513.46" y2="718.11"/><path class="cls-29" d="M473.73,261.42a27.58,27.58,0,0,0-34.9-26.59,42.83,42.83,0,0,0-81.21-4.18,29.26,29.26,0,0,0,2.46,58.42c.64,0,1.27,0,1.9-.07h86v-.07A27.57,27.57,0,0,0,473.73,261.42Z"/><line class="cls-30" x1="398" y1="249" x2="398" y2="268"/><circle class="cls-31" cx="397.5" cy="246" r="12"/></g></g></svg>