<svg xmlns="http://www.w3.org/2000/svg" viewBox="0 0 615.62 543.09"><defs><style>.cls-1{fill:#f1f2f2;}.cls-2{fill:#bee7fa;}.cls-3{fill:#919183;}.cls-4{fill:#76c6da;}.cls-5{fill:#0983b7;}.cls-6{fill:#1c4e4d;}.cls-7{fill:#09347a;}.cls-8{fill:#eaece3;}.cls-9{fill:#e6e6e6;}.cls-10{fill:#fff;}.cls-11{fill:#f9d894;}</style></defs><title>RPA Solution and Implementation</title><g id="Layer_2" data-name="Layer 2"><g id="Layer_1-2" data-name="Layer 1"><rect class="cls-1" x="298.67" y="205.72" width="28.16" height="35.57"/><path class="cls-2" d="M565.08,516.22c-.26-8.57-3-16.6-5.87-24.59-3-8.29-13.49-32.11-13.49-32.11a8.27,8.27,0,0,0-8-5.55H264.52q-53.34-2.64-106.76-2.66-16.83,0-33.68.25c-11.15.17-46.7,2.41-46.7,2.41a8.24,8.24,0,0,0-8,5.55L59.7,490.15q-1.14,2.69-2.3,5.37c-4.89,11.36-7.11,22.25-2.09,34,2.2,5.15,9.78,6.3,14.19,3.72,5.33-3.12,5.93-9,3.72-14.19a9.8,9.8,0,0,1-.32-3.17c0-.44.06-.8.09-1.13h469a25.06,25.06,0,0,1-1.08,10.47c-1.61,5.36,1.94,11.3,7.25,12.76a10.53,10.53,0,0,0,12.76-7.25,46.44,46.44,0,0,0,1.61-7.7A9.78,9.78,0,0,0,565.08,516.22Z"/><path class="cls-2" d="M567.66,312.13c-1.62.2-3.27.33-5,.4-7.65.29-14.21,0-19.37-3.16.54-.57,1-1.14,1.5-1.7,5.83-7.07,6.06-13.15,3.46-17.08a7.22,7.22,0,0,1,2.89,6.23c1.46.81,10.17,2.38,20-.42A38,38,0,0,0,582.71,291a49.76,49.76,0,0,0,12-62.93c-7.08-12.19-18.43-15.12-32.28-13.78-21,3.49-35.2,16.05-48.56,32.94-12.13,16.53-18,30.79-43.49,39.65-24.38,8.45-51.79,2.67-64.32-7.61-6.08-5,1-16.25,9-11.64,7.47,5.82,16.22,7,25.13,8.33,10.22,1.07,16.21.55,28.16-4.1,22-9.51,22.93-20.69,37.73-38.36,12.73-15.17,29.09-28.74,48.63-32.8C632.66,184.41,634.5,303.93,567.66,312.13Z"/><path class="cls-2" d="M472.2,112.84v0a17.88,17.88,0,0,1-5.93,0,34.39,34.39,0,0,1-9.39-3.08c-7.34-3.5-19.45,4.88-12.18,16.79a8.68,8.68,0,0,0,1.8,1.57,18.38,18.38,0,0,0,1.89,1.17,41.41,41.41,0,0,1-9.82,1.76c-10-.19-9.49-7.57-22.81-48.25-2.69-8.25-10.16-24.5-3.42-30,2-1.64,27.71-9.7,33.13-9.7,10,0,10.73,12.49,14.27,23.7q.17.54.33,1l1.51,4.8c1.57,5,3,9.44,4.22,13.43.19.6.38,1.2.56,1.8C470.1,100.08,472.12,107.71,472.2,112.84Z"/><path class="cls-3" d="M450.62,126.55a9,9,0,0,0,1.8,1.57c-1.31.41-2.68.81-4,1.17a18.38,18.38,0,0,1-1.89-1.17,8.68,8.68,0,0,1-1.8-1.57c-7.27-11.91,4.84-20.29,12.18-16.79a34.39,34.39,0,0,0,9.39,3.08,17.88,17.88,0,0,0,5.93,0C472.71,118.27,443.37,114.66,450.62,126.55Z"/><path class="cls-4" d="M466.27,112.84c.12,6.58-2.94,9.06-9.64,11.78-1.27.52-5.44,2.06-10.13,3.5a8.68,8.68,0,0,1-1.8-1.57c-7.27-11.91,4.84-20.29,12.18-16.79A34.39,34.39,0,0,0,466.27,112.84Z"/><path class="cls-5" d="M443.24,52.08c-2.68,0-6.55,1.39-11.15,2.6C423.41,57,415,60.92,418.2,68.9c.43,1,5.29,26.8,10.75,35.82,2.61,4.31,4.79,6.17,11.57,5.19-1.69.18,14-2.3,18.84-5.56,3.72-2.56,3.54-5.25,2.23-9.23-9-27.5-7.24-43-18.35-43"/><path class="cls-1" d="M444.84,434c-2.26.22-3.06,4.71-18.69,13.52-16.59,9.33-20.33,7.32-20.6,11.25-3.18,5.83,48.25,37.78,57.18,38.39,5.92.36,45.1-24,54.43-30.24,3.63-2.43,2.52-5.18.32-5.44-17.62-2.1-44.34-6.56-59.4-16.14-1.16-.74-7.43-4.47-9.53-7.08-1.8-2.21-1.08-4.51-3.71-4.26"/><path class="cls-2" d="M318.82,87.86c43.8,4.82,50.21,14.8,51.94,20.23.76,20.15,3,23.71,2.2,46.33-4.45,16.48,0,9.75-15.8,32.11-3.49,4.17-16.25,21.42-20.08,23-6.74,2.72-21.26,2.43-25.93,2-23.74-2.13-21.83,2.18-42.45-18.23,1.73,1.72-17.2-16.45-19.45-31.61-1.32-8.9-3.93-50.8,3.06-58.2,3.77-4,15.81-14.43,61-15.77C314.39,87.67,318.09,87.78,318.82,87.86Z"/><path class="cls-2" d="M294.22,233c-.07,0-46.86,1.38-53.46,3.29-3.7,1.07-9.46,4.32-11.31,7.24-4.56,7.2-4.76,19.13-4.75,19.05-.92,18.74.11,46.19.38,48.14,2.38,16.86,21.26,34.55,33.19,52,5.86,8.5,23.55,29.71,30.4,33.63.37,3.41,3,2.32,14.45,2.94,12.53.66,29.13-2.63,37.79-5.64,5.09-1.76,4.78-3.95,13.15-15.26,53.85-68.86,39-51.5,41.95-111.14.55-11.24-1.26-16.54-1.24-16.47-5.78-24.79-20.14-14.42-73.93-17.39L294.22,233"/><path class="cls-2" d="M139.74,118.52c-31.49,1.74-51,39.59-35.62,43.83,3.41.93,5.53-.61,7.21-1.91,2-2.05,2-3.77,2.4-6.87,2.35-12.87,26.45-27.14,39.9-17C163,144,163.91,148,164.08,156c.17,7.56-.42,7-3.24,13.83-9.53,21.86-18.83,54.06-6.46,74.38,3.6,5.92,10.64,13.35,17.36,16.47,18.09,8.41,54.94,7.16,59.21-.14a7.41,7.41,0,0,0-2.65-10.14c-3.36-2-4.52-.61-17,1.09-8.73,1-23.65-.37-31.7-3.44a28.67,28.67,0,0,1-16-21.07c-4-39.5,21.07-53,14.24-81-2.22-9.13-7.74-15.28-15-20.93-5.36-4.19-11-7.25-23.12-6.57m28.15,119.4h0"/><path class="cls-2" d="M51.23,239.83c-52.5,2.9-77.09,90.74-12.49,117.65C60,366.32,84.2,365.76,115.27,341c23.9-19.06,38.5-62.86,104.92-60.5,9.19.34,10.39-14.44,0-14.82a150.77,150.77,0,0,0-24.19.93c-22.16,2.83-47.64,17.65-59.6,29.83-14,14.18-23.56,30.76-42.36,41.46C85.29,342.86,74.4,348,63.89,348,41.1,348,6.24,329.15,17.2,286c3.06-12.06,7.85-16.93,15.58-23,23.41-17.15,31.61-2,39.05-4,6.63-1.84,7.09-10.77,1.77-13.55-8-4.2-16.33-5.83-22.37-5.5"/><path class="cls-2" d="M201.21,293.33c-49.09,5.65-79.53,77.76-48.32,119.42,40.15,53.52,139,32.6,127.48,13-3.93-6.7-11.2-2.21-16-.37-52.4,20.06-123.14-5.53-106.1-71.63,6.89-26.72,25.72-42.67,42.34-45.49,5.21-.55,6.16,1.25,9.61-.76,7.07-4.14,4.25-15.66-9-14.14"/><path class="cls-2" d="M485.85,107.11c-4.55,2.67-6.13,10.52,2.42,13.79,13.28,6.14,16.41,27.79,11.85,40-2.11,4.54-1.91-3.85-19.42-7.74-9.93-2.21-29.75.06-39,6.36-10.06,6.84-13.88,18.55-9.06,29.51,8.24,18.82,42,18.44,61.65,2.65,0,24.88-17.23,43-37,51.43-42.52,17.68-58.15.7-66.33,5.49a7.42,7.42,0,0,0-2.65,10.14c3.12,5.33,40,14.77,80.26-4.54,30-14.44,46.15-47.64,39.22-77.15,25-35-7.24-78.55-21.9-70M476,167.34c7.27,1.31,10.61,3.57,14.39,7.69-5.24,5.65-8.5,7.73-12.77,9.58-39,16.24-46.35-20.81-1.62-17.27m37.09-38.88c-.42-1-.47-1.1,0,0m-.44-1c.14.31.15.34,0-.07l0,.07m0-.07c-.36-.86-.41-1,0,0"/><path class="cls-2" d="M403.17,289.09a7.49,7.49,0,0,0,0,10.49c35.1,33.9,98.35,38.94,92.14,38.11,28.4,3.72,57.13,2.26,73.47,38.84,7.06,18.3-2.08,45.94-22.6,44-24.9-4.29-22.51-20.66-41.89-23-12.85-1.61-30.53,6.46-24.89,16.2a7.47,7.47,0,0,0,11.7,1.51c3.29-3.28,7.77-3.43,12-3,11.24,2.28,13.46,20.4,44,23.28,35.23,3.3,60.34-58.7,12.13-95.13-33.16-25.08-68-5.59-129.38-38.88-8.66-4.71-9.81-6.22-16.14-12.38a7.5,7.5,0,0,0-10.48,0"/><path class="cls-5" d="M456.39,486.18C448.74,497.9,504,471,499,465.48c-1.84-2.09-3.41.3-8.34,3.65-20,13.31-33,15.11-34.28,17.05"/><path class="cls-5" d="M444.27,478.94c-7,10.78,45.68-12.48,40.67-17.91-1.87-2-3.31.15-8,3.13-18.95,11.8-31.53,13-32.69,14.78"/><path class="cls-5" d="M466.3,456.73c-5.21,3.06-16.36,9.18-21.27,10.92-2.57.9-2.59,6.71,4.62,2.92,17-9,21.69-10,19.71-13.14a2.25,2.25,0,0,0-3.06-.7M451.93,469.4h0"/><path class="cls-1" d="M389.19,108.71c0,.21,0,.05,0-.37,0,.13,0,.23,0,.3,0-.21,0-.34,0-.4a10.14,10.14,0,0,0-2.27-5.12,6.88,6.88,0,0,0-5.39-2.63c-9.46,0-11.72,1.12-13.56,6.72-.82,2.5-1.58,10.22-1,15.93,2.87,31.38-2.87,44.86,9.74,46,11.44,2,12.43-7.9,13.18-22.24C390.62,131.77,389.44,112.1,389.19,108.71Z"/><path class="cls-6" d="M389.17,108.24c0-.06,0-.06,0,0s0,.07,0,.1Z"/><path class="cls-6" d="M370.76,102.31l0,0Z"/><path class="cls-6" d="M370.52,102.49Z"/><path class="cls-6" d="M370.79,102.29c.61-.48.46-.38,0,0Z"/><path class="cls-1" d="M240.43,99.48c-7.22,0-12.37,2.47-11.59,17.21.07,1.43-.15,9.66-.14,9.44C228.23,164,224,165,235.53,169.19c-.67-.4,15.36,4.54,14.65-7-3.22-48.29,8.18-62.71-9.75-62.71"/><path class="cls-6" d="M326,159.48c-4.34,3.79-17.18,7.78-15.19,11.88,1.67,3.45,4.43.2,12.34-3.08,14-5.76,5.9-11.47,2.85-8.8"/><path class="cls-5" d="M356.75,121c-2.57-7.84-7.42-8.85-40-8.85q-3,0-6.1.19c2.38-.15.44,0-3.54.21-3.5-.14-26.71,1.21-31,1.53-6.81.37-9.92,2.62-10.9,5.1-.28.69-1.53,12-1.09,23.42.09,2.34-.66,7.44,6.22,12.13.45.4.94.81,1.48,1.25,3.22,2.6,13.46,7.64,17.1,9.11,8.44,3.43,17.43,8.79,25.43,7.84,1.57-.19,11.09-4,14.75-6.09,13.47-7.59,23.36-12.89,27.27-21.47C358,142.06,359,127.26,356.75,121Z"/><path class="cls-1" d="M222.91,237.23c-1.83-1-4.41-1.46-8-1.12-5.76.53-13.42-.14-14.87,18.65-.23,2.91-.41,7.84-.3,12.82-.13,3.11-.28,6.68-.47,10.75-.05,1,0,2.51,0,4.19-1,19,.12,38.86,7,42.66a12.22,12.22,0,0,0,4.57,1.38,15.53,15.53,0,0,0,5.68.29c15.42-.48,11.79-16.71,11-33.09C226.48,261.34,234.08,240.66,222.91,237.23Zm-20.32,6Z"/><path class="cls-1" d="M405.64,235.58a17.91,17.91,0,0,0-2.8.38c-1.9.23-3,.33-4.07,1.11-4.83,2.11-8.11,7.3-6.57,14.91C392,255,392,258.83,392,264.2c0,.93,0,2.19,0,3.68,0,.92-.05,1.87-.08,2.88-1.06,32.91-3.55,45.55,2.39,51.26,2,1.94,6,2.33,9.61,2.05,1.09.08,2.26.13,3.57.13,8.43,0,9.53-10.09,9.74-22.06C417.83,264.29,425.52,235.58,405.64,235.58Z"/><path class="cls-7" d="M298.59,366.16c-90,0-87.64,3.69-90.78,12.14-2.3,6.2,12.26,86.65,20.05,103.26a5,5,0,0,0,4.48,2.87c47.51.77,105.73-1.86,156.19-2.08,1.56,0,5.47-2.36,6.24-6.31,3.61-18.5,11.75-72.27,12.79-86,1.51-19.75-2.92-20.56-14.16-21.7-15-1.52-29.76-2.19-94.81-2.19"/><path class="cls-8" d="M112.83,286.09c-.19,3.31-.75,6-1.53,7.32-8.56,11-20.69,2.68-20-5.42a30.93,30.93,0,0,0-1.06-12.16c4-1.41,7.71-2.57,10.65-3.44C109.62,269.79,104.23,269.24,112.83,286.09Z"/><path class="cls-8" d="M122.19,349.07l0,0s0,0,0,0"/><path class="cls-8" d="M122.12,349.23c0,.12.13-.3,0,0"/><path class="cls-5" d="M349,254.34c-81.64,3.56-91.34.35-89.39,12.79-1.05,5.09-.36,18.86,2,28.79,1.78,13.38,8,12.46,21.31,13.22,23.07,1.31,75.34-2.51,77.73-3.46s2-.31,2.79-9.58c-.66,7.57,1.33-15.27.48-6,1.44-22.44,2.63-36.63-14.92-35.81"/><path class="cls-9" d="M119.91,354.54A140.82,140.82,0,0,0,112.52,375c-11.09-6.11-9.54-5.65-15.5-10.82-10.07-8.71-47.3-54-45-62.74.05-.22.11-.43.18-.65C54,295.23,60,290.23,67.32,286a140.12,140.12,0,0,1,22.89-10.13A30.93,30.93,0,0,1,91.27,288c-.66,8.1,11.47,16.45,20,5.42.78-1.35,1.34-4,1.53-7.32,4,7.78,10.94,19.28,23.65,36C139.86,326.52,132.29,324.13,119.91,354.54Z"/><path class="cls-1" d="M112.83,286.09c-.19,3.31-.75,6-1.53,7.32-8.56,11-20.69,2.68-20-5.42a30.93,30.93,0,0,0-1.06-12.16C85,259.89,64.68,267.88,67.32,286,60,290.23,54,295.23,52.19,300.79c-3-2-5.51-5.86-6.18-12.31-2.86-22.1,11.4-41.8,34.57-42.84,11.7-.52,20.59,6.8,27.1,16.6C112,268.72,113.25,278.92,112.83,286.09Z"/><path class="cls-6" d="M532,287.49a20.18,20.18,0,0,0-8.62,8.86c-4.77,8.95-17.05,6.84-19.6-1.29,9.92-8.19,19.65-14.89,23.13-13C528,282.64,529.78,284.59,532,287.49Z"/><path class="cls-1" d="M500.27,114.81c-3.68,11.12-13.68,16.83-25.15,19.43-8.68,2-20.51-1.51-26.73-5a18.38,18.38,0,0,1-1.89-1.17,8.68,8.68,0,0,1-1.8-1.57c-7.27-11.91,4.84-20.29,12.18-16.79a34.39,34.39,0,0,0,9.39,3.08,17.88,17.88,0,0,0,5.93,0c13.28-2.32,11.49-21.84-5.84-25-.18-.6-.37-1.2-.56-1.8-1.24-4-2.65-8.44-4.22-13.43l-1.51-4.8c2.89-1.55,7-2,12.43-.6C494.18,72.45,507.53,92.77,500.27,114.81Z"/><path class="cls-1" d="M125.91,184.12c-2.55,11.67-6.57,14.93-8.66,17.54-3.2,4-7.21,5.29-10.82,4.86-7-.83-12.42-8.2-7.73-15.71.62-1,1.61-2.12,2.64-3.49a17.53,17.53,0,0,0,3.75-12.59c-.4-1.95-.78-3.54-2.54-4.53a8.6,8.6,0,0,0-4.79,1.59C96.53,166,95.25,159.54,94,152.21c-.13-.74-.26-1.47-.39-2.18a35.89,35.89,0,0,1,8.87-1.34C116.81,148.27,130.25,164.41,125.91,184.12Z"/><path class="cls-1" d="M94.21,198.77A10.38,10.38,0,0,1,87,201.54c-15.85,0-20.54-31.21-4.15-45.66A27.72,27.72,0,0,1,93.58,150c.13.71.26,1.44.39,2.18,1.28,7.33,2.56,13.83,3.79,19.58-2.87,2-4.81,5.83-3.4,11.22C99.14,187.07,98.59,194.68,94.21,198.77Z"/><path class="cls-1" d="M482.54,432.07c-9.42,7.36-14.6,7.3-17.87,8a12.2,12.2,0,0,1-10.3-2.13c-6-4.75-6.07-15.07,2.95-18.07.37-.12.78-.23,1.22-.33,3.58-.82,9.3-1.35,14-8,.94-1.75,1.66-3.22.95-5.1a8.94,8.94,0,0,0-11.65.6q1.69-6.1,3.83-13.17a113.71,113.71,0,0,0,2.95-11.06c6,.07,12.27,2.12,18.52,7C498.43,398.68,498.47,419.68,482.54,432.07Z"/><path class="cls-1" d="M468.59,382.82a113.71,113.71,0,0,1-2.95,11.06q-2.14,7.06-3.83,13.17a12.85,12.85,0,0,0-2.85,4c1.17,6.64-5,12.5-11.52,12a10.56,10.56,0,0,1-6-2.47c-9.8-8.2-1.13-27.28,14-34.74A28.59,28.59,0,0,1,468.59,382.82Z"/><path class="cls-10" d="M311.33,119.16c-13,.36-35,.65-35.11.65-5.33,0-5.59,5.93.33,5.88,4.16,0,30.81-.53,35.11-.65,5.61-.15,5.29-6-.33-5.88"/><path class="cls-10" d="M318.79,122.35c.17,4.22,6.74,4.18,6.56-.26-.17-4.22-6.74-4.18-6.56.26"/><path class="cls-10" d="M340.31,262.94c-4.71.26-51.17,1.71-64.11,2-3.1.06-7.73-.52-7.93,2.23-.33,4.59,11.74,1.26,55.49.95,7.47-.06,26.29-1,26.36-1,4-.41,3.86-4.6-.83-4.51.27,0-5.47.18-9,.37"/><path class="cls-10" d="M299,276.52c4.37-.21-6.72.4-18.29.35-4.57,0-9.62-.75-9.9,2s4.64,2.37,6.74,2.44c.87,0,10.36.14,21.77-.37,7.55-.31,12.18.51,12.46-2.21.31-3.09-6.38-2.47-12.78-2.18"/><path class="cls-10" d="M271.56,292.27c-.29,3,5.13,2.71,9.74,2.78,16.56.26,11.43.44,20,.28,5.56-.12,4.72-5,.45-4.89-23.46.48-29.8-2.13-30.16,1.83"/><path class="cls-10" d="M350.73,289.9c-.07,0-35.24.55-36.62,1.34-2.64,1.5-.71,4.16,2.23,4.15.07,0,35.1-.48,36.62-1.34C355.59,292.56,353.69,289.9,350.73,289.9Z"/><path class="cls-11" d="M308.27,418.61a10.3,10.3,0,0,0-6.81,13.67c1,2.78,4.05,5.46,6.85,5.88,5.33.78,12.53-1.68,11.8-11.15-.36-4.95-6-9.94-11.84-8.4"/><path class="cls-10" d="M308.27,419.35A10.3,10.3,0,0,0,301.46,433c1,2.79,4.05,5.47,6.85,5.88,5.33.78,12.53-1.68,11.8-11.15-.36-4.95-6-9.94-11.84-8.4"/><path class="cls-2" d="M103.5,216.08c-1,.17-2.73.44-3.42-.72-2.19-3.64-4.66-12.19-5.87-16.59a1.32,1.32,0,0,0,0-.23c-3.11-11.42-8.13-29.83-11.34-42.66-1.17-4.64-2.1-8.54-2.62-11.12-1.6-2.88-1.8-7.13,2.79-9.75,6.5-3.68,8.47,3.22,10.59,15,.13.71.26,1.44.39,2.18,1.28,7.33,2.56,13.83,3.79,19.58,1.26,5.93,2.46,11.07,3.58,15.53-1,1.37-2,2.49-2.64,3.49-4.69,7.51.78,14.88,7.73,15.71a39.23,39.23,0,0,1,1.06,5.13C107.76,214.14,105.74,215.66,103.5,216.08Z"/><path class="cls-6" d="M443.12,449c-.72,2.1-.38,13.17,2.05,13.21s5.28-8.38,5.5-11.44S443.12,449,443.12,449Z"/><path class="cls-2" d="M468.59,382.82a113.71,113.71,0,0,1-2.95,11.06q-2.14,7.06-3.83,13.17c-1.25,4.53-2.33,8.68-3.27,12.46-.44.1-.85.21-1.22.33-9,3-8.93,13.32-2.95,18.07-1.56,7.58-2.41,12.36-3.44,15.14-.88,2.34-3.37,2.78-5.55,2.14-.95-.27-2.64-.82-2.74-2.17-.32-4.32,1.39-13.29,2.29-17.69.72-3.54,1.58-7.74,2.51-12.24,2.64-12.85,5.84-28.12,8-37.21.46-1.92.87-3.56,1.23-4.85-.13-3.29,1.6-7.17,6.88-7.45S469.72,376.76,468.59,382.82Z"/><path class="cls-5" d="M479.49,318.36c-4.45,3-9.64,5.93-8.15,13.34S510,395.25,515.8,398.39c9.63,5.19,46.68-26.43,48.91-30.63s5.93-10.12,2.22-13.83S479.49,318.36,479.49,318.36Z"/><path class="cls-8" d="M568.48,358.38c-3.59,3.55-43.65,40.13-51.12,33s-51.58-67.67-40-72.3c0,0,9.84-9.82,20.86-19.4,1.81-1.57,3.65-3.14,5.49-4.66,9.92-8.19,19.65-14.89,23.13-13,1.16.62,2.92,2.57,5.09,5.47s4.68,6.7,7.41,11.08c1,1.69,2.13,3.46,3.23,5.29q1.11,1.86,2.24,3.81a41.09,41.09,0,0,1-3.82,4c-6,5.5-2.71,19.86,11,17.55a12.17,12.17,0,0,0,3.53-2.11c.53,1,1,2,1.55,3C564.56,344.52,570,356.92,568.48,358.38Z"/><path class="cls-7" d="M440.9,540.69c56.61-.39,119-.76,119-.76a6.3,6.3,0,0,0,6.3-6.3V521a6.3,6.3,0,0,0-6.3-6.3H496.31c-60.72-2.31-120.58-.59-181.33,0-21.69.2-256.77,0-256.77,0a6.3,6.3,0,0,0-6.3,6.3v12.59a6.3,6.3,0,0,0,6.3,6.3s59.71,2.5,85.21,2.83c70.24.91,140.06-.22,210.83-1.35,11.07-.17,47.48-.45,86.65-.72"/><path class="cls-2" d="M395.75,374.68c-25.19-1.49-50.45-1.58-75.67-1.59-25.42,0-50.95-.51-76.34.72-6.78.33-13.58.75-20.33,1.5-5.41.59-8.79,2.85-9.88,8.41-.54,2.8,3.75,4,4.29,1.19s1.41-4.39,4.23-5a66.7,66.7,0,0,1,8.71-.84c6-.49,12.07-.81,18.12-1.05,11.7-.45,23.4-.37,35.11-.4,24.35-.07,48.71-.23,73.07.16,12.9.21,25.81.58,38.69,1.34,2.86.17,2.85-4.28,0-4.45Z"/><path class="cls-2" d="M417.75,34.58c-1.84,3.86,4,7.14,5.82,3.26,1.4-2.93,4.24-3.51,6.85-1.65,1.47,1,3.73.17,4.54-1.28a3.41,3.41,0,0,0-1.28-4.54A10.83,10.83,0,0,0,417.75,34.58Z"/><path class="cls-2" d="M405.77,27c-2.53,3.48,2.81,7.48,5.34,4a21.14,21.14,0,0,1,25.74-7.15c4,1.66,6.46-4.53,2.5-6.18A27.91,27.91,0,0,0,405.77,27Z"/><path class="cls-2" d="M447.92,4.43c-5.46-1.93-10.16-3.84-16-4.28A46.74,46.74,0,0,0,414.22,2c-10.58,3.41-19,11-22.48,21.7-1.32,4.09,5.1,5.92,6.41,1.84,3-9.29,10.91-15.48,20.22-17.79a43.2,43.2,0,0,1,14.69-.85c4.74.48,8.59,2.35,13,3.91C450.13,12.27,452,5.85,447.92,4.43Z"/><path class="cls-5" d="M563.2,351a466.08,466.08,0,0,1-31.57-53.14c-1.72-3.4-6.84-.4-5.11,3A465.87,465.87,0,0,0,556.74,352q-17.88,12.87-34.63,27.22c-2.9,2.49,1.31,6.66,4.19,4.19q16.88-14.47,35-27.4C561.75,355.63,564.27,352.51,563.2,351Z"/><path class="cls-5" d="M530.6,321.66a79.82,79.82,0,0,0-1.6-12.6c-.76-3.73-6.47-2.15-5.71,1.58A68.92,68.92,0,0,1,524.64,321c.07,1.4.1,2.8.09,4.21a25.72,25.72,0,0,1-.06,4.53,5.16,5.16,0,0,0-3.66,2.24,9,9,0,0,0-1,5.8c.31,3.15.86,6.29,1.29,9.42l.6,4.32.39,2.88c.44.43.21.37-.68-.17-2.17-.27-3.39-1.26-5.63-.21a7.16,7.16,0,0,0-3.49,4.21,24.86,24.86,0,0,0-1,7.29q-.32,5.72-.62,11.42c-.21,3.81,5.72,3.8,5.93,0,.23-4.28.43-8.57.7-12.85,0-.85-.1-3.8.76-4.38s3,.83,4,1c8.06,1.26,5.72-8.27,5.09-12.89q-.4-2.88-.79-5.76c-.22-1.56-1.12-4.31-.68-5.9.33-1.24.84-.49,2.19-1.19a4.31,4.31,0,0,0,2.13-2.56C531.2,329.19,530.73,324.94,530.6,321.66Z"/><path class="cls-1" d="M571.19,296.4a50.91,50.91,0,0,1-.67,7.44,28.3,28.3,0,0,1-2.86,8.29,48.89,48.89,0,0,1-12.07,15,12.17,12.17,0,0,1-3.53,2.11c-13.76,2.31-17-12.05-11-17.55.84-.78,1.61-1.54,2.32-2.31.54-.57,1-1.14,1.5-1.7,5.83-7.07,6.06-13.15,3.46-17.08-3.06-4.62-10-6.28-16.34-3.1-2.17-2.9-3.93-4.85-5.09-5.47-3.48-1.85-13.21,4.85-23.13,13-1.13-3.55-.39-8.25,3.66-13.68,12.85-18.2,36.69-23,54.44-8.1C568.86,279.2,571.35,287.5,571.19,296.4Z"/><path class="cls-10" d="M437.38,88.75c3.85-8.41,10.67-22.51,10.69-22.56a2.94,2.94,0,1,0-5.35-2.44c-1.31,2.65-9.42,19.77-10.7,22.56a3,3,0,1,0,5.36,2.44"/><path class="cls-10" d="M431.85,81.93c1.85-4.46,5.28-11.87,5.29-11.9.86-1.78-4.35-4.52-5.3-2.54-.67,1.39-4.68,10.42-5.29,11.9-.8,1.92,4.5,4.48,5.3,2.54"/></g></g></svg>